<svg width="162" height="202" viewBox="0 0 162 202" fill="none" xmlns="http://www.w3.org/2000/svg"><rect width="162" height="202" rx="32" fill="#BBBEAC"></rect><path d="m70.243 72.696 1.01.641 1.281-2.017-1.009-.64-1.282 2.016Zm17.844-2.017-1.009.641 1.282 2.017 1.008-.64-1.281-2.018ZM64.273 57.45c0-8.64 6.961-15.633 15.533-15.633v-2.39c-9.905 0-17.923 8.076-17.923 18.023h2.39Zm15.533-15.633c8.572 0 15.533 6.992 15.533 15.633h2.39c0-9.947-8.018-18.023-17.923-18.023v2.39Zm-8.28 28.862a15.645 15.645 0 0 1-7.253-13.229h-2.39a18.034 18.034 0 0 0 8.36 15.246l1.282-2.017ZM95.338 57.45c0 5.57-2.894 10.46-7.252 13.23l1.281 2.016a18.034 18.034 0 0 0 8.36-15.246h-2.39ZM82.49 52.935l.977.689 1.378-1.953-.977-.69-1.377 1.954Zm-1.042-1.56.049-1.195h-.049v1.194Zm-3.286 5.974v1.195-1.195Zm3.286 5.974v1.195-1.195Zm-3.286 0-.05 1.194h.05v-1.194Zm-1.043-1.56-.976-.69-1.378 1.953.976.69 1.378-1.954Zm6.75-10.781a4.432 4.432 0 0 0-2.372-.802l-.098 2.388c.4.017.78.147 1.091.367l1.378-1.953Zm-2.421-.803h-3.286v2.39h3.286v-2.39Zm-3.286 0c-1.13 0-2.226.427-3.042 1.205l1.648 1.73c.36-.342.86-.545 1.394-.545v-2.39Zm-3.042 1.205a4.112 4.112 0 0 0-1.29 2.977h2.39c0-.456.19-.905.548-1.246l-1.648-1.731Zm-1.29 2.977c0 1.129.472 2.199 1.29 2.978l1.648-1.73a1.722 1.722 0 0 1-.548-1.248h-2.39Zm1.29 2.978a4.412 4.412 0 0 0 3.042 1.205v-2.39a2.023 2.023 0 0 1-1.394-.546l-1.648 1.73Zm3.042 1.205h3.286v-2.39h-3.286v2.39Zm3.286 0c.533 0 1.033.202 1.393.545l1.649-1.73a4.413 4.413 0 0 0-3.042-1.206v2.39Zm1.393.545c.359.34.548.79.548 1.247h2.39a4.112 4.112 0 0 0-1.29-2.978l-1.648 1.73Zm.548 1.247c0 .456-.19.905-.548 1.247l1.649 1.73a4.112 4.112 0 0 0 1.29-2.977h-2.39Zm-.548 1.247c-.36.343-.86.545-1.393.545v2.39c1.13 0 2.225-.427 3.042-1.205l-1.649-1.73Zm-1.393.545h-3.286v2.39h3.286v-2.39Zm-3.237 0c-.4-.016-.78-.146-1.092-.366l-1.378 1.953c.695.49 1.52.767 2.372.802l.098-2.388Z" fill="#1E2330"></path><path d="M81 48.989v-1.195h-2.39v1.195H81Zm-2.39 2.39v1.195H81v-1.195h-2.39ZM81 63.866v-1.195h-2.39v1.195H81Zm-2.39 1.847v1.195H81v-1.195h-2.39Zm0-16.724v2.39H81v-2.39h-2.39Zm0 14.877v1.847H81v-1.847h-2.39Z" fill="#1E2330"></path><path d="M61.883 75.271h35.845" stroke="#1E2330" stroke-width="2.39" stroke-linejoin="bevel"></path><path d="M53.224 119.997c3.505-2.188 6.256-4.068 8.252-5.639 2.018-1.594 3.463-3.027 4.334-4.302.87-1.296 1.306-2.581 1.306-3.855 0-1.572-.52-2.857-1.561-3.856-1.041-.998-2.38-1.497-4.015-1.497-1.614 0-2.963.488-4.047 1.465-1.083.956-1.667 2.199-1.752 3.728h-2.676c.106-1.465.541-2.772 1.306-3.919a7.844 7.844 0 0 1 3.027-2.676c1.253-.659 2.644-.988 4.174-.988 1.593 0 3.006.33 4.238.988 1.253.658 2.22 1.572 2.9 2.74.7 1.168 1.05 2.507 1.05 4.015 0 1.529-.435 3.027-1.306 4.492-.87 1.466-2.24 3.006-4.11 4.62-1.87 1.594-4.365 3.388-7.488 5.385h13.032v2.517H53.224v-3.218Zm28.64 3.728c-2.506 0-4.545-.605-6.117-1.816s-2.443-2.836-2.613-4.875h2.709c.212 1.317.86 2.358 1.943 3.123 1.084.764 2.443 1.147 4.079 1.147 1.19 0 2.251-.202 3.186-.606.934-.403 1.657-.956 2.167-1.657.53-.701.796-1.508.796-2.421 0-1.593-.648-2.815-1.944-3.664-1.295-.871-3.154-1.307-5.575-1.307v-2.262c1.232 0 2.325-.191 3.281-.574.956-.382 1.7-.913 2.23-1.593a3.585 3.585 0 0 0 .83-2.326c0-1.189-.468-2.156-1.403-2.899-.913-.765-2.103-1.147-3.568-1.147-1.381 0-2.56.318-3.537.956-.956.637-1.54 1.508-1.753 2.612h-2.644c.212-1.848 1.03-3.303 2.453-4.365 1.424-1.062 3.25-1.593 5.48-1.593 1.488 0 2.804.276 3.952.829 1.168.552 2.07 1.316 2.708 2.294.658.977.988 2.081.988 3.313 0 1.275-.298 2.401-.892 3.378a5.459 5.459 0 0 1-2.454 2.135c1.445.403 2.55 1.136 3.314 2.198.786 1.062 1.179 2.4 1.179 4.015 0 1.38-.372 2.613-1.116 3.696-.743 1.062-1.784 1.901-3.122 2.517-1.338.595-2.857.892-4.556.892Zm24.123-22.272H92.955v-2.517h15.995v2.007l-9.527 22.272h-2.9l9.464-21.762ZM43.479 148.035h4.115c1.166 0 2.174.224 3.025.674a4.7 4.7 0 0 1 1.993 1.892c.468.822.703 1.788.703 2.897 0 1.118-.234 2.088-.703 2.91a4.818 4.818 0 0 1-1.993 1.893c-.86.44-1.869.659-3.025.659h-4.115v-10.925Zm1.577 8.746h2.495c.66 0 1.233-.129 1.72-.387.488-.268.86-.645 1.119-1.133.258-.497.387-1.08.387-1.749s-.134-1.252-.402-1.749a2.694 2.694 0 0 0-1.118-1.147c-.478-.268-1.047-.402-1.706-.402h-2.41l.804-.688v8.029l-.89-.774Zm13.62 2.395c-.822 0-1.558-.173-2.208-.517a3.855 3.855 0 0 1-1.506-1.476c-.363-.631-.545-1.358-.545-2.18 0-.793.177-1.505.53-2.136a3.723 3.723 0 0 1 1.492-1.491c.65-.364 1.395-.545 2.237-.545.831 0 1.567.172 2.208.516.65.344 1.152.836 1.505 1.477.363.631.545 1.357.545 2.179 0 .793-.177 1.51-.53 2.151a3.852 3.852 0 0 1-1.492 1.491c-.64.354-1.386.531-2.236.531Zm0-1.95c.382 0 .717-.091 1.003-.273.297-.191.526-.454.689-.788a2.63 2.63 0 0 0 .243-1.162c0-.44-.086-.827-.258-1.161a1.906 1.906 0 0 0-.688-.789 1.743 1.743 0 0 0-.99-.287c-.372 0-.707.096-1.003.287a1.85 1.85 0 0 0-.674.774c-.153.335-.23.727-.23 1.176 0 .44.077.827.23 1.162.163.334.387.597.674.788.296.182.63.273 1.004.273Zm11.272-2.524c0-.602-.143-1.075-.43-1.419-.287-.345-.688-.517-1.204-.517-.535 0-.946.177-1.233.531-.287.344-.43.841-.43 1.491l-.732-.487c0-.698.13-1.31.388-1.836a2.76 2.76 0 0 1 1.104-1.204c.477-.287 1.037-.43 1.677-.43.66 0 1.228.153 1.706.459.488.296.86.731 1.119 1.304.258.574.387 1.252.387 2.036v4.33h-2.352v-4.258Zm-5.634-3.656h2.337v7.914h-2.337v-7.914Zm14.87 3.255c0-.526-.138-.928-.416-1.205-.267-.277-.664-.416-1.19-.416-.392 0-.712.096-.96.287a1.062 1.062 0 0 0-.416.789h-2.438a2.74 2.74 0 0 1 .53-1.491c.335-.45.79-.799 1.363-1.047.583-.258 1.247-.387 1.993-.387.812 0 1.505.143 2.079.43a2.99 2.99 0 0 1 1.333 1.262c.316.544.474 1.199.474 1.964v4.473h-2.352v-4.659Zm-2.667 4.875c-.898 0-1.61-.22-2.136-.66-.516-.449-.774-1.056-.774-1.821 0-.774.286-1.376.86-1.807.583-.439 1.376-.659 2.38-.659h2.839v1.362h-2.251c-.516 0-.894.072-1.133.215a.686.686 0 0 0-.344.617.76.76 0 0 0 .316.63c.22.153.506.23.86.23.353 0 .683-.086.99-.258.315-.182.568-.44.759-.774.2-.335.301-.736.301-1.205h.89c0 .832-.15 1.558-.445 2.18a3.306 3.306 0 0 1-1.248 1.448c-.535.334-1.156.502-1.864.502Zm9.267 0c-.784 0-1.386-.22-1.806-.66-.42-.44-.631-1.061-.631-1.864v-7.628h2.351v7.227c.01.353.082.611.215.774.134.153.354.229.66.229.21 0 .406-.038.588-.114.181-.077.349-.182.502-.316v1.663c-.172.191-.44.354-.803.488a3.013 3.013 0 0 1-1.076.201Zm-3.656-8.13h5.535v1.95h-5.535v-1.95Zm6.685 0h2.337v7.914h-2.337v-7.914Zm1.176-.688c-.401 0-.736-.115-1.004-.345a1.102 1.102 0 0 1-.387-.86c0-.344.13-.631.387-.86.268-.23.603-.344 1.004-.344s.731.114.99.344c.267.229.4.516.4.86s-.133.631-.4.86c-.259.23-.588.345-.99.345Zm6.803 8.818c-.822 0-1.558-.173-2.208-.517a3.855 3.855 0 0 1-1.505-1.476c-.363-.631-.545-1.358-.545-2.18 0-.793.177-1.505.53-2.136a3.723 3.723 0 0 1 1.492-1.491c.65-.364 1.395-.545 2.236-.545.832 0 1.568.172 2.208.516.65.344 1.152.836 1.506 1.477.363.631.545 1.357.545 2.179 0 .793-.177 1.51-.531 2.151a3.847 3.847 0 0 1-1.491 1.491c-.64.354-1.386.531-2.237.531Zm0-1.95c.383 0 .717-.091 1.004-.273.296-.191.526-.454.688-.788a2.63 2.63 0 0 0 .244-1.162 2.5 2.5 0 0 0-.258-1.161 1.905 1.905 0 0 0-.688-.789 1.743 1.743 0 0 0-.99-.287c-.373 0-.707.096-1.003.287a1.85 1.85 0 0 0-.674.774c-.153.335-.23.727-.23 1.176 0 .44.077.827.23 1.162.162.334.387.597.674.788.296.182.63.273 1.003.273Zm11.273-2.524c0-.602-.143-1.075-.43-1.419-.287-.345-.688-.517-1.205-.517-.535 0-.946.177-1.233.531-.286.344-.43.841-.43 1.491l-.731-.487c0-.698.129-1.31.387-1.836a2.759 2.759 0 0 1 1.104-1.204c.478-.287 1.037-.43 1.678-.43.659 0 1.228.153 1.706.459.487.296.86.731 1.118 1.304.258.574.387 1.252.387 2.036v4.33h-2.351v-4.258Zm-5.635-3.656h2.337v7.914h-2.337v-7.914Zm13.15 8.13c-.774 0-1.458-.125-2.05-.373-.583-.258-1.023-.607-1.319-1.047-.287-.449-.392-.956-.316-1.52h2.337a.922.922 0 0 0 .359.832c.277.22.64.33 1.089.33.392 0 .703-.067.932-.201.239-.134.359-.311.359-.531a.545.545 0 0 0-.229-.458c-.144-.115-.445-.22-.904-.316l-1.233-.229c-.87-.163-1.525-.445-1.964-.846-.43-.411-.645-.932-.645-1.563 0-.478.143-.899.43-1.262.286-.373.688-.659 1.204-.86.526-.201 1.133-.301 1.821-.301.679 0 1.291.124 1.835.372.555.249.985.593 1.291 1.033.306.43.444.903.416 1.419h-2.295c.02-.277-.1-.511-.358-.702-.248-.201-.569-.301-.961-.301-.334 0-.602.062-.803.186-.191.124-.286.287-.286.488 0 .172.076.315.229.43.163.105.44.205.832.301l1.29.301c.851.182 1.491.473 1.921.875.431.391.646.898.646 1.519 0 .488-.148.913-.445 1.276-.296.364-.722.646-1.276.846-.545.201-1.18.302-1.907.302Z" fill="#1E2330"></path></svg>