<svg width="324" height="202" viewBox="0 0 324 202" fill="none" xmlns="http://www.w3.org/2000/svg"><rect width="324" height="202" rx="32" fill="#502274"></rect><path d="M201.096 46.304c0-8.452 6.852-15.304 15.304-15.304s15.304 6.852 15.304 15.304c0 8.453-6.852 15.305-15.304 15.305s-15.304-6.852-15.304-15.305Z" fill="#CE00BA"></path><path fill-rule="evenodd" clip-rule="evenodd" d="M216.095 40.518c-1.489 0-1.675.006-2.26.033-.583.026-.982.12-1.331.255a2.697 2.697 0 0 0-.971.632 2.703 2.703 0 0 0-.632.97c-.135.35-.228.748-.255 1.332-.026.585-.033.77-.033 2.26 0 1.49.006 1.675.033 2.26.027.584.12.982.255 1.331.138.366.354.697.632.971.305.305.611.492.971.632.349.136.748.229 1.331.255.585.027.771.033 2.26.033 1.489 0 1.676-.006 2.261-.033.583-.027.982-.12 1.331-.255.365-.137.697-.353.97-.632.305-.305.493-.61.633-.97.135-.35.228-.748.255-1.332.026-.585.033-.771.033-2.26 0-1.49-.007-1.675-.033-2.26-.027-.584-.12-.982-.255-1.331a2.692 2.692 0 0 0-.633-.971 2.685 2.685 0 0 0-.97-.632c-.349-.136-.748-.229-1.332-.255-.584-.027-.77-.033-2.26-.033Zm0 7.311a1.83 1.83 0 0 1-1.69-2.53 1.829 1.829 0 1 1 1.69 2.53Zm0-4.647a2.817 2.817 0 1 0 0 5.633 2.817 2.817 0 0 0 0-5.633Zm3.638-.051a.666.666 0 1 1-1.331 0 .666.666 0 0 1 1.331 0" fill="#fff"></path><path d="M201.096 82.913c0-8.452 6.852-15.304 15.304-15.304s15.304 6.852 15.304 15.304-6.852 15.304-15.304 15.304-15.304-6.852-15.304-15.304Z" fill="#FF2272"></path><g clip-path="url(#a)" fill="#fff"><path d="M219.229 78.402a2.91 2.91 0 0 1-.719-1.92h-.563a2.92 2.92 0 0 0 1.282 1.92ZM214.018 82.55a1.77 1.77 0 0 0-.818 3.338 1.748 1.748 0 0 1-.336-1.033c0-.976.793-1.77 1.768-1.77.182 0 .359.031.523.083v-2.152a3.924 3.924 0 0 0-.523-.037c-.031 0-.059.003-.091.003v1.65a1.776 1.776 0 0 0-.523-.082Z"></path><path d="M220.822 79.346v1.636a5.005 5.005 0 0 1-2.928-.941v4.282a3.881 3.881 0 0 1-3.875 3.878 3.857 3.857 0 0 1-2.22-.703 3.867 3.867 0 0 0 2.834 1.238 3.881 3.881 0 0 0 3.875-3.878v-4.282a5.005 5.005 0 0 0 2.928.941v-2.105a2.88 2.88 0 0 1-.614-.066Z"></path><path d="M217.891 84.323V80.04a5.01 5.01 0 0 0 2.929.941v-1.636a2.924 2.924 0 0 1-1.595-.944 2.938 2.938 0 0 1-1.285-1.92h-1.541l-.003 8.441a1.77 1.77 0 0 1-1.765 1.704 1.775 1.775 0 0 1-1.436-.736 1.776 1.776 0 0 1-.949-1.568c0-.976.793-1.77 1.768-1.77.182 0 .358.031.523.082v-1.65a3.874 3.874 0 0 0-2.741 6.513 3.86 3.86 0 0 0 2.221.703 3.882 3.882 0 0 0 3.874-3.878Z"></path></g><path d="M201.096 119.522c0-8.453 6.852-15.305 15.304-15.305s15.304 6.852 15.304 15.305c0 8.452-6.852 15.304-15.304 15.304s-15.304-6.852-15.304-15.304Z" fill="#2375E0"></path><g clip-path="url(#b)"><path d="M222.312 119.255c0-3.455-2.784-6.255-6.218-6.255s-6.217 2.8-6.217 6.255c0 3.123 2.273 5.71 5.246 6.18v-4.372h-1.579v-1.808h1.579v-1.378c0-1.568.928-2.434 2.348-2.434.68 0 1.392.122 1.392.122v1.54h-.784c-.773 0-1.013.482-1.013.977v1.173h1.724l-.275 1.808h-1.449v4.372c2.973-.47 5.246-3.057 5.246-6.18Z" fill="#fff"></path></g><path d="M201.096 156.13c0-8.452 6.852-15.304 15.304-15.304s15.304 6.852 15.304 15.304c0 8.453-6.852 15.305-15.304 15.305s-15.304-6.852-15.304-15.305Z" fill="#38B1FD"></path><path d="M222.312 152.003a5.139 5.139 0 0 1-1.465.398 2.53 2.53 0 0 0 1.121-1.399c-.493.29-1.039.5-1.62.613a2.562 2.562 0 0 0-1.862-.798 2.54 2.54 0 0 0-2.485 3.105 7.267 7.267 0 0 1-5.258-2.642 2.522 2.522 0 0 0 .789 3.376 2.56 2.56 0 0 1-1.155-.316v.032c0 1.225.879 2.247 2.046 2.48a2.604 2.604 0 0 1-1.152.043 2.552 2.552 0 0 0 2.384 1.756 5.153 5.153 0 0 1-3.778 1.047 7.262 7.262 0 0 0 3.91 1.136c4.693 0 7.259-3.853 7.259-7.194 0-.109-.003-.218-.008-.327a5.171 5.171 0 0 0 1.273-1.308l.001-.002Z" fill="#fff"></path><path d="M245.073 52.192c-.679 0-1.27-.116-1.773-.348a2.746 2.746 0 0 1-1.174-.982c-.272-.431-.411-.934-.419-1.51h1.413c.016.472.2.843.551 1.115.352.271.819.407 1.402.407.383 0 .723-.06 1.018-.18.296-.12.523-.287.683-.503.16-.224.24-.483.24-.779 0-.487-.228-.87-.683-1.15-.455-.28-1.078-.42-1.869-.42v-1.197c.447 0 .827-.056 1.138-.168.32-.12.563-.283.731-.491.176-.216.264-.467.264-.755 0-.351-.144-.643-.432-.874-.287-.24-.651-.36-1.09-.36-.487 0-.89.12-1.21.36a1.184 1.184 0 0 0-.503.91h-1.366c.008-.503.144-.95.408-1.342a2.699 2.699 0 0 1 1.09-.91c.463-.216.99-.324 1.581-.324a3.28 3.28 0 0 1 1.486.336c.455.224.81.531 1.066.922.263.384.395.811.395 1.282 0 .424-.092.795-.275 1.114-.176.32-.436.572-.779.755-.336.184-.743.288-1.222.312v-.504c.543.017 1.018.128 1.426.336.407.208.718.495.934.862.216.368.323.803.323 1.306 0 .56-.139 1.05-.419 1.474-.271.415-.663.739-1.174.97-.503.224-1.09.336-1.761.336Zm8.839-8.518.503.491h-5.367v-1.294h6.098v1.138L251.719 52h-1.461l3.654-8.326Zm4.221 2.588a1.698 1.698 0 0 1-1.498-.887 1.818 1.818 0 0 1-.227-.898c0-.328.076-.627.227-.899a1.698 1.698 0 0 1 1.498-.887c.319 0 .611.08.874.24.264.152.472.367.623.647.16.272.24.571.24.899 0 .327-.08.63-.24.91a1.722 1.722 0 0 1-.623.647 1.72 1.72 0 0 1-.874.228Zm.024-.91a.78.78 0 0 0 .587-.252.848.848 0 0 0 .251-.623.848.848 0 0 0-.251-.623.801.801 0 0 0-.599-.264c-.24 0-.44.088-.599.264a.868.868 0 0 0-.24.623c0 .247.08.455.24.623a.805.805 0 0 0 .611.251Zm4.636-2.48h1.581L257.941 52h-1.545l6.397-9.129Zm-.168 9.308a1.694 1.694 0 0 1-1.497-.887 1.876 1.876 0 0 1-.228-.91c0-.328.076-.623.228-.887a1.693 1.693 0 0 1 1.497-.887c.32 0 .611.08.875.24.263.152.471.364.623.635.159.272.239.571.239.899 0 .335-.08.639-.239.91-.152.272-.36.487-.623.647-.264.16-.555.24-.875.24Zm.024-.923a.778.778 0 0 0 .587-.251.846.846 0 0 0 .252-.623.831.831 0 0 0-.252-.611.798.798 0 0 0-.599-.264.777.777 0 0 0-.599.264.856.856 0 0 0-.239.61c0 .248.08.456.239.624.16.167.364.251.611.251ZM241.755 87.562c1.206-.71 2.18-1.353 2.923-1.928.75-.583 1.302-1.118 1.653-1.606.351-.495.527-.974.527-1.437 0-.487-.164-.875-.491-1.162-.32-.288-.751-.432-1.294-.432-.567 0-1.03.164-1.39.492-.359.327-.543.75-.551 1.27h-1.425a2.888 2.888 0 0 1 .455-1.546 3.222 3.222 0 0 1 1.222-1.114 3.542 3.542 0 0 1 1.689-.407c.623 0 1.174.123 1.653.37a2.79 2.79 0 0 1 1.138 1.031c.28.44.42.939.42 1.498 0 .599-.2 1.21-.599 1.833-.392.623-.971 1.25-1.737 1.88-.767.623-1.714 1.246-2.84 1.87l-.036-.468h5.26V89h-6.577v-1.438Zm11.312-7.882c.703 0 1.314.183 1.833.55.527.36.93.883 1.21 1.57.279.679.419 1.486.419 2.42 0 1.054-.14 1.957-.419 2.707-.272.743-.675 1.306-1.21 1.69-.527.375-1.17.563-1.929.563a3.481 3.481 0 0 1-1.485-.312 2.962 2.962 0 0 1-1.103-.898 3.191 3.191 0 0 1-.575-1.354h1.402c.08.407.276.727.587.958.32.232.711.348 1.174.348.527 0 .971-.172 1.33-.515.367-.344.635-.85.803-1.522.175-.67.247-1.485.215-2.444h.479c0 .52-.119.983-.359 1.39-.24.407-.571.727-.994.958a3.034 3.034 0 0 1-1.438.336c-.623 0-1.178-.132-1.665-.395a2.91 2.91 0 0 1-1.138-1.127c-.272-.487-.408-1.046-.408-1.677 0-.639.136-1.202.408-1.689a2.924 2.924 0 0 1 1.162-1.15c.495-.272 1.062-.407 1.701-.407Zm.06 1.257a1.93 1.93 0 0 0-1.006.264 1.869 1.869 0 0 0-.707.707 2.024 2.024 0 0 0-.252 1.018c0 .367.084.703.252 1.007.175.295.411.527.707.694.295.168.631.252 1.006.252.367 0 .695-.084.982-.252.288-.167.511-.399.671-.694.16-.296.24-.632.24-1.007 0-.383-.08-.723-.24-1.018a1.734 1.734 0 0 0-.671-.707 1.844 1.844 0 0 0-.982-.263Zm6.117 2.325a1.694 1.694 0 0 1-1.497-.887 1.808 1.808 0 0 1-.228-.898c0-.328.076-.627.228-.899a1.694 1.694 0 0 1 1.497-.887c.32 0 .611.08.875.24.263.152.471.368.623.647.159.272.239.571.239.899 0 .327-.08.63-.239.91-.152.272-.36.487-.623.647a1.723 1.723 0 0 1-.875.228Zm.024-.91a.78.78 0 0 0 .587-.252.845.845 0 0 0 .252-.623.845.845 0 0 0-.252-.623.8.8 0 0 0-.599-.264.777.777 0 0 0-.599.264.867.867 0 0 0-.239.623c0 .247.079.455.239.623.16.167.364.251.611.251Zm4.636-2.48h1.582L259.053 89h-1.546l6.397-9.129Zm-.167 9.308a1.698 1.698 0 0 1-1.498-.887 1.875 1.875 0 0 1-.227-.91c0-.328.075-.623.227-.887a1.697 1.697 0 0 1 1.498-.886c.319 0 .611.08.874.24.264.151.471.363.623.634.16.272.24.571.24.899 0 .335-.08.639-.24.91a1.729 1.729 0 0 1-.623.647c-.263.16-.555.24-.874.24Zm.024-.923a.78.78 0 0 0 .587-.251.849.849 0 0 0 .251-.623.834.834 0 0 0-.251-.611.801.801 0 0 0-.599-.264c-.24 0-.44.088-.599.264a.853.853 0 0 0-.24.61c0 .248.08.456.24.624a.805.805 0 0 0 .611.251ZM241.755 123.562c1.206-.71 2.18-1.353 2.923-1.928.75-.583 1.302-1.119 1.653-1.606.351-.495.527-.974.527-1.437 0-.487-.164-.875-.491-1.162-.32-.288-.751-.432-1.294-.432-.567 0-1.03.164-1.39.492-.359.327-.543.75-.551 1.269h-1.425a2.886 2.886 0 0 1 .455-1.545 3.22 3.22 0 0 1 1.222-1.114 3.537 3.537 0 0 1 1.689-.407c.623 0 1.174.123 1.653.371.487.248.867.591 1.138 1.03.28.439.42.939.42 1.498 0 .599-.2 1.21-.599 1.833-.392.623-.971 1.25-1.737 1.88-.767.623-1.714 1.246-2.84 1.869l-.036-.467h5.26V125h-6.577v-1.438Zm9.751-7.691h1.402V125h-1.402v-9.129Zm-2.072 1.45h.335c.535 0 .959-.124 1.27-.372.312-.255.467-.603.467-1.042h.683c0 .559-.096 1.05-.287 1.474a2.171 2.171 0 0 1-.827.958c-.351.224-.771.336-1.258.336h-.383v-1.354Zm6.464 1.941c-.311 0-.603-.08-.874-.24a1.72 1.72 0 0 1-.623-.647 1.806 1.806 0 0 1-.228-.898c0-.328.076-.627.228-.899a1.69 1.69 0 0 1 1.497-.886c.32 0 .611.079.875.239.263.152.471.368.623.647.159.272.239.571.239.899 0 .327-.08.631-.239.91-.152.272-.36.487-.623.647a1.72 1.72 0 0 1-.875.228Zm.024-.911a.781.781 0 0 0 .587-.251.847.847 0 0 0 .252-.623.844.844 0 0 0-.252-.623.8.8 0 0 0-.599-.264.777.777 0 0 0-.599.264.865.865 0 0 0-.239.623c0 .247.079.455.239.623a.81.81 0 0 0 .611.251Zm4.636-2.48h1.582L255.707 125h-1.546l6.397-9.129Zm-.167 9.309a1.695 1.695 0 0 1-1.498-.887 1.873 1.873 0 0 1-.227-.91c0-.328.075-.623.227-.887a1.704 1.704 0 0 1 1.498-.886c.319 0 .611.08.874.239.264.152.471.364.623.635.16.272.24.571.24.899 0 .335-.08.639-.24.91a1.728 1.728 0 0 1-.623.647 1.65 1.65 0 0 1-.874.24Zm.024-.923a.783.783 0 0 0 .587-.251.85.85 0 0 0 .251-.623.832.832 0 0 0-.251-.611.8.8 0 0 0-.599-.264c-.24 0-.44.088-.599.264a.85.85 0 0 0-.24.611c0 .247.08.455.24.623a.807.807 0 0 0 .611.251ZM243.779 151.871h1.402V161h-1.402v-9.129Zm-2.072 1.45h.335c.535 0 .959-.124 1.27-.372.311-.255.467-.603.467-1.042h.683c0 .559-.096 1.05-.287 1.474a2.171 2.171 0 0 1-.827.958c-.351.224-.771.336-1.258.336h-.383v-1.354Zm8.098 7.871c-.679 0-1.27-.116-1.773-.348a2.742 2.742 0 0 1-1.174-.982c-.271-.431-.411-.935-.419-1.51h1.413c.016.472.2.843.552 1.115.351.271.818.407 1.401.407.384 0 .723-.06 1.018-.18a1.54 1.54 0 0 0 .683-.503c.16-.224.24-.483.24-.779 0-.487-.228-.87-.683-1.15-.455-.279-1.078-.419-1.869-.419v-1.198c.447 0 .827-.056 1.138-.168.32-.12.563-.283.731-.491.176-.216.264-.467.264-.755 0-.351-.144-.643-.432-.874-.287-.24-.651-.36-1.09-.36-.487 0-.89.12-1.21.36a1.183 1.183 0 0 0-.503.91h-1.366c.008-.503.144-.95.408-1.342a2.71 2.71 0 0 1 1.09-.91c.463-.216.99-.323 1.581-.323.543 0 1.038.111 1.486.335.455.224.81.531 1.066.922.263.384.395.811.395 1.282 0 .424-.092.795-.275 1.114-.176.32-.436.571-.779.755-.335.184-.743.288-1.222.312v-.503c.543.015 1.018.127 1.426.335.407.208.718.495.934.862.216.368.324.803.324 1.306 0 .559-.14 1.051-.42 1.474-.271.415-.663.739-1.174.97-.503.224-1.09.336-1.761.336Zm5.941-5.93c-.311 0-.603-.08-.874-.24a1.72 1.72 0 0 1-.623-.647 1.806 1.806 0 0 1-.228-.898c0-.328.076-.627.228-.899a1.69 1.69 0 0 1 1.497-.886c.32 0 .611.079.875.239.263.152.471.368.623.647.159.272.239.571.239.899 0 .327-.08.631-.239.91-.152.272-.36.487-.623.647a1.72 1.72 0 0 1-.875.228Zm.024-.911a.781.781 0 0 0 .587-.251.847.847 0 0 0 .252-.623.844.844 0 0 0-.252-.623.8.8 0 0 0-.599-.264.775.775 0 0 0-.599.264.866.866 0 0 0-.24.623c0 .247.08.455.24.623.16.167.363.251.611.251Zm4.636-2.48h1.582L255.554 161h-1.545l6.397-9.129Zm-.167 9.309a1.695 1.695 0 0 1-1.498-.887 1.874 1.874 0 0 1-.228-.91c0-.328.076-.623.228-.887a1.704 1.704 0 0 1 1.498-.886c.319 0 .611.08.874.239.264.152.471.364.623.635.16.272.24.571.24.899 0 .335-.08.639-.24.91a1.728 1.728 0 0 1-.623.647 1.65 1.65 0 0 1-.874.24Zm.024-.923a.783.783 0 0 0 .587-.251.85.85 0 0 0 .251-.623.832.832 0 0 0-.251-.611.8.8 0 0 0-.599-.264c-.24 0-.44.088-.599.264a.85.85 0 0 0-.24.611c0 .247.08.455.24.623a.807.807 0 0 0 .611.251Z" fill="#E9C0E9"></path><mask id="c" maskUnits="userSpaceOnUse" x="42" y="45" width="113" height="112" style="mask-type: alpha;"><path d="M140.095 101c0 23.135-18.754 41.889-41.89 41.889-23.134 0-41.889-18.754-41.889-41.889s18.755-41.89 41.89-41.89 41.889 18.755 41.889 41.89Z" stroke="#fff" stroke-width="28"></path></mask><g mask="url(#c)"><path d="m98 102 90-25.5-53.5-47L98 102Z" fill="#38B1FD"></path><path d="M98 102 56.5 28 196-6.5 98 102Z" fill="#2375E0"></path><path d="M98 102 41-2 19.5 195.5 98 102Z" fill="#FF2272"></path><path d="m98 102 224.5-71.5L-43 259 98 102Z" fill="#CE00BA"></path></g><defs><clipPath id="a"><path fill="#fff" transform="translate(207.486 76.391)" d="M0 0h17.217v12.435H0z"></path></clipPath><clipPath id="b"><path fill="#fff" transform="translate(207.486 113)" d="M0 0h17.217v12.435H0z"></path></clipPath></defs></svg>