<svg width="162" height="202" viewBox="0 0 162 202" fill="none" xmlns="http://www.w3.org/2000/svg"><rect width="162" height="202" rx="32" fill="#D717E7"></rect><path fill-rule="evenodd" clip-rule="evenodd" d="m70.247 38.231-.845.35-7.17 7.17-.35.35V48.984c0 1.885.95 3.487 2.39 4.556v18.14h-2.389v2.39h35.845v-2.39h-2.39v-18.14c1.44-1.069 2.39-2.67 2.39-4.556v-2.822l-.276-.333-5.975-7.169-.918-.43H70.247Zm-3.585 33.45V54.693a7.572 7.572 0 0 0 1.992.266c2.23 0 4.323-.984 5.576-2.572 1.252 1.588 3.346 2.572 5.576 2.572 2.23 0 4.323-.984 5.576-2.572 1.252 1.588 3.345 2.572 5.576 2.572.683 0 1.353-.092 1.99-.266v16.988H85.78V60.933l-1.195-1.195h-9.559l-1.195 1.195v10.748h-7.169Zm9.56 0h7.168v-9.553h-7.169v9.553Zm17.76-26.28L90 40.62H70.742l-4.78 4.78H93.983Zm-29.71 2.39v1.194c0 1.813 1.783 3.584 4.382 3.584 2.599 0 4.38-1.77 4.38-3.584h2.39c0 1.813 1.783 3.584 4.382 3.584 2.599 0 4.38-1.77 4.38-3.584h2.39c0 1.813 1.783 3.584 4.382 3.584 2.599 0 4.38-1.77 4.38-3.584V47.79H64.274Z" fill="#fff"></path><path d="M42.416 127.23h2.581v-3.569c5.162-.223 8.38-2.644 8.38-6.404 0-3.25-2.262-5.576-6.277-6.659l-2.103-.574v-8.985c2.613.605 4.716 2.581 5.098 5.002H52.9c-.446-3.887-3.855-6.946-7.902-7.487v-3.569h-2.58v3.537c-4.748.35-7.68 2.836-7.68 6.723 0 3.122 2.23 5.225 6.692 6.309l.987.255v9.335c-3.09-.605-5.13-2.708-5.448-5.831h-2.932c.478 4.62 3.665 7.679 8.38 8.285v3.632Zm-5.002-22.081c0-2.453 1.944-4.014 5.002-4.269v8.443c-3.377-.988-5.002-2.358-5.002-4.174Zm7.583 16.155v-8.858l.701.159c3.473.86 5.066 2.262 5.066 4.365 0 2.549-2.23 4.174-5.767 4.334Zm15.774 1.911h2.613V98.936H60.77v.032c0 2.326-1.784 3.473-4.62 3.473h-.924v2.485h1.21c1.785 0 3.283-.637 4.334-1.752v20.041Zm5.557 4.525h1.72l1.817-8.253h-3.537v8.253Zm14.16-4.047c5.194 0 8.476-3.218 8.476-8.411 0-5.13-3.218-8.348-8.348-8.348-3.155 0-5.959 1.72-6.978 4.205.478-6.659 3.027-10.323 7.2-10.323 2.837 0 4.748 1.529 5.194 4.142h2.74c-.732-4.015-3.696-6.5-7.933-6.5-5.99 0-9.432 4.525-9.432 12.681 0 8.062 3.282 12.554 9.081 12.554Zm-6.022-8.411c0-3.505 2.422-5.991 5.895-5.991 3.505 0 5.958 2.486 5.958 5.991 0 3.568-2.453 6.085-5.958 6.085-3.473 0-5.895-2.517-5.895-6.085Zm17.917 4.715v3.218h16.664v-2.517H96.016c9.24-5.894 12.904-9.909 12.904-14.497 0-4.557-3.378-7.743-8.189-7.743-4.652 0-8.157 3.123-8.507 7.583H94.9c.191-3.058 2.581-5.193 5.799-5.193 3.282 0 5.576 2.198 5.576 5.353 0 3.759-3.473 7.296-13.892 13.796Zm23.137 3.218h2.899l9.527-22.272v-2.007h-15.995v2.517h13.032l-9.463 21.762ZM66.075 159.176c2.882 0 4.602-1.191 4.602-3.184 0-1.691-1.075-2.666-3.183-3.154l-1.82-.444c-1.19-.287-1.693-.66-1.693-1.277 0-.802.803-1.175 1.792-1.175 1.162 0 2.05.616 2.123 1.491h2.523c-.014-1.907-1.979-3.613-4.53-3.613-2.567 0-4.388 1.333-4.388 3.226 0 1.72.946 2.667 3.34 3.14l1.693.344c1.505.301 1.763.774 1.763 1.362 0 .774-.774 1.291-2.079 1.291-1.39 0-2.308-.703-2.337-1.793h-2.567c-.114 2.294 1.764 3.786 4.76 3.786Zm8.539 0c1.133 0 2.065-.459 2.695-1.248v1.032h2.194v-4.473c0-2.294-1.462-3.656-3.828-3.656-2.222 0-3.728 1.29-3.814 2.91h2.265c.087-.702.646-1.118 1.477-1.118 1.076 0 1.663.559 1.707 1.606h-2.352c-2.007 0-3.27.903-3.27 2.495 0 1.505 1.134 2.452 2.926 2.452Zm-.717-2.696c0-.559.43-.875 1.577-.875h1.778a2.17 2.17 0 0 1-2.122 1.764c-.745 0-1.233-.344-1.233-.889Zm7.198 2.48h2.194v-10.925h-2.194v10.925Zm7.585.216c2.236 0 3.828-1.348 3.9-2.968h-2.194c-.158.659-.846 1.104-1.692 1.104-1.133 0-1.82-.646-1.95-1.85h5.893v-.258c0-3.212-1.993-4.373-4.058-4.373-2.58 0-4.043 1.892-4.043 4.172 0 2.538 1.549 4.173 4.144 4.173Zm-1.85-5.105c.258-.874.875-1.434 1.75-1.434.917 0 1.562.574 1.763 1.434H86.83Zm10.568 5.105c2.136 0 3.527-.947 3.527-2.395 0-1.262-.86-2.022-2.452-2.38l-1.32-.316c-.845-.2-1.132-.415-1.132-.774 0-.43.473-.731 1.162-.731.845 0 1.433.487 1.405 1.075h2.15c.072-1.577-1.462-2.824-3.47-2.824-2.021 0-3.369.975-3.369 2.423 0 1.247.846 2.05 2.552 2.38l1.248.244c1.018.215 1.161.473 1.161.817 0 .459-.53.789-1.362.789-.946 0-1.592-.531-1.534-1.248H93.77c-.172 1.706 1.348 2.94 3.628 2.94Z" fill="#fff"></path></svg>