<svg width="324" height="202" viewBox="0 0 324 202" fill="none" xmlns="http://www.w3.org/2000/svg"><rect width="324" height="202" rx="32" fill="#061492"></rect><path d="M98.206 156.889c30.867 0 55.889-25.022 55.889-55.889 0-30.867-25.022-55.89-55.89-55.89-30.866 0-55.889 25.023-55.889 55.89s25.023 55.889 55.89 55.889Z" fill="#02ACC4"></path><path d="M98.206 156.889a55.719 55.719 0 0 0 31.302-9.571.055.055 0 0 0 .018-.019c.041-.06-.042-.16-.106-.125-.163.087-.313.163-.447.228-.131.064-.234-.106-.126-.204 1.587-1.436 4.412-4.636 4.946-6.323.03-.095.063-.187.096-.281.034-.1.068-.213.103-.282.842-1.895 2.631-3.105 3.526-5 .684-1.421.684-1.421.894-2.789.158-.842-.473-1.631 0-2.473.053-.106.158-.263.211-.369.745-1.676.79-2.075.753-2.327a.11.11 0 0 0-.111-.093h-.011a.106.106 0 0 1-.105-.106v-.056c0-.027-.021-.049-.046-.06-.041-.017-.165.011-.196.042a.407.407 0 0 1-.021.022c-.101.101-.24.151-.378.189a1.665 1.665 0 0 0-.191.067c-.426.177-.682-.19-.904-.595-.411-.751-1.49.161-1.619.275l-.026.023c-.741.682-2.198 1.462-2.355 1.462-1.263-.053-2.105 1.105-3.368 1.052-.907-.05-1.187-1.113-1.994-1.343a.667.667 0 0 1-.192-.105c-.099-.069-.213-.059-.331-.061-.074 0-.126-.103-.097-.171.016-.038.023-.082 0-.116a.644.644 0 0 0-.087-.102.513.513 0 0 1-.156-.275c-.088-.51-.543-.85-.704-1.299a.26.26 0 0 0-.058-.094l-.007-.007c-.037-.037-.085-.057-.135-.041a.146.146 0 0 1-.184-.09 6.797 6.797 0 0 1-.033-.084c-.076-.191-.318-.356-.51-.429l-.123-.05c-.212-.087-.405-.276-.427-.505l-.041-.432c-.052-.531.114-1.297.352-1.774.274-.549.522-1.197.62-1.488l.005-.014a.699.699 0 0 1 .067-.106c.029-.039.029-.098-.018-.086-.039.01-.105-.006-.105-.047 0-.437-.003-.64-.045-.774-.068-.213-.155-.429-.066-.634.031-.072.054-.127.07-.174.069-.203-.056-.405-.181-.578a.745.745 0 0 1-.067-.109c-.02-.04-.032-.075-.073-.094-.118-.052-.203-.162-.174-.287.342-1.468 1.598-2.543 1.799-4.05.316-2.106 3.421-2.474 3.053-4.947-.224-1.602.634-2.73 1.415-3.905.576-.865 1.548-1.473 2.584-1.411.298.019.524-.088.721-.24.664-.514 1.163-1.436 1.899-1.839.684-.373 1.584-.409 2.157-.953.067-.064.169-.09.258-.064.066.018.155.012.203-.036l.047-.048a.318.318 0 0 1 .2-.082c.428-.036.647-.488 1.017-.639.107-.044.222.015.286.111l.163.243a.081.081 0 0 0 .115.021c.054-.037.144.006.144.071 0 1.98-.005 2.048-.194 2.569-.007.02-.015.043-.03.058-.01.01-.03.048-.022.06.026.041.036.1.057.165.017.051.06.087.112.099.124.028.267.037.389.067a.136.136 0 0 1 .088.054c.075.107.176.232.306.241.938.064 1.237.103 1.518.391.289.297.387.458.796.531.52.092 1.339.026 1.324-.502-.009-.336-.06-.672.022-1.007l.004-.014c.029-.115.439-1.67 1.115-.837.101.124.245.214.401.181.05-.011.1-.023.148-.036.076-.022.157-.001.201.065.045.068.129.087.209.07.183-.039.367-.02.556.004.388.049.712-.196.88-.55.042-.091.069-.13.119-.206.046-.092.172-.143.377-.225.059-.023.124-.01.16.043.049.073.155.091.239.067l.055-.016a.158.158 0 0 0 .093-.088c.414-.936.295-4.171.02-5.739-.006-.032-.1-.035-.101-.002-.001.007-.003.016-.009.02a.335.335 0 0 1-.073.051c-.099.052-.201.124-.228.232l-.084.332c-.078.298-.382.392-.6.174a.041.041 0 0 0-.007-.006s-.156-.063-.224-.017l-.024.016a.147.147 0 0 0-.059.138c.014.146.014.246 0 .327-.044.246-.382.273-.618.192l-.011-.003c-.042-.015-.087-.021-.129-.037a.477.477 0 0 1-.089-.046c-.038-.025-.06-.049-.047-.093a.285.285 0 0 0-.098-.302c-.223-.158-.262-.45-.415-.625-.009-.01-.017-.03-.027-.02-.011.011-.051.023-.055.008a1.132 1.132 0 0 0-.077-.18.065.065 0 0 1 .012-.076.064.064 0 0 0 .02-.046v-.16c0-.042.043-.075.051-.116a.071.071 0 0 0 0-.02c-.041-.204-.071-.355-.099-.47-.097-.394-.318-.692-.119-1.046.183-.326.419-.706.547-.91a.181.181 0 0 0-.05-.25.114.114 0 0 1-.045-.14l.02-.047a.38.38 0 0 1 .198-.181c.765-.344.568-1.28 1-1.817.065-.081.172-.084.222.008.037.067.112.124.188.124h.033c.068 0 .133.027.17.083.031.046.063.096.094.127.136.137.353-.075.403-.26.282-1.045.525-2.503-1.111-3.193a1.17 1.17 0 0 1-.528-.441.814.814 0 0 1-.077-.15.036.036 0 0 1-.001-.017c.048-.293.05-.313.005-.992l-.007-.206v-.004l-.219-.328a.298.298 0 0 1-.036-.29c.104-.257-.269-.247-.33.024-.137.61-.15.896-.151 1.34-.001.055-.067.083-.106.044-.039-.039-.127-.014-.14.039a.524.524 0 0 0-.012.057.098.098 0 0 1-.065.08c-.079.025-.167.05-.253.075-.106.03-.222-.063-.284-.154-.023-.036-.059-.044-.102-.044h-.021a.197.197 0 0 0-.2.173c-.069.695.202 1.39.162 2.085-.002.03-.085.035-.085.004 0 .898.378 1.748.373 2.596 0 .055.047.192.085.23a.238.238 0 0 1 .02.023c.317.528.42.7.502.772.064.056.125.14.125.225 0 .075-.043.12-.107.158-.174.1-.225.218-.363.882-.021.098-.16.081-.161-.019 0-.049-.041-.078-.086-.098-.057-.025-.115-.068-.172-.104a.201.201 0 0 0-.135-.025c-.119.022-.211.123-.269.23l-.06.104a.521.521 0 0 0-.06.395c.02.083.036.169.042.246a.128.128 0 0 1-.05.113c-.027.022-.058.045-.087.073-.041.04-.102.064-.151.033-.063-.039-.152.016-.133.087.152.563.231.86.273 1.033.046.19.149.368.31.477a.728.728 0 0 1 .238.233c.047.072.037.172-.011.244-.04.06-.114.08-.175.042a.608.608 0 0 1-.072-.052c-.141-.118-.332-.216-.488-.119a4.811 4.811 0 0 0-.161.105.066.066 0 0 1-.035.01.061.061 0 0 1-.052-.028 2.613 2.613 0 0 1-.176-.324 1.36 1.36 0 0 0-.196-.31c-.889-1.06-.75-3.351-2.223-3.645-.394-.078-.796-.21-1.029-.537-.197-.275-.423-.592-.581-.806-.076-.103-.217-.108-.289-.002-.079.12-.24.105-.309-.02l-.062-.112c-.097-.174-.327-.156-.382.036-.268.937.625 1.894 1.757 3.03.106.106.282.11.427.069.131-.037.248.072.316.19.243.415.95.55 1.196.93.125.192-.112.208-.339.171a.24.24 0 0 0-.271.227c-.013.79.495 1.581.15 2.372-.032.073-.188.062-.223-.01a.097.097 0 0 1-.011-.04c0-.424-.001-.582-.083-.912-.129-.513-.533-.917-.905-1.293-.144-.146-.281-.298-.438-.432a.289.289 0 0 0-.227-.06c-.195.025-.244-.015-.543-.271-.006-.005-.014-.001-.014.006 0 .009-.013.012-.018.005a.82.82 0 0 0-.271-.22.092.092 0 0 1-.04-.04l-.023-.046a.245.245 0 0 0-.042-.06c-.86-.912-1.288-1.366-1.514-1.591-.177-.177-.39-.25-.498-.024-.11.233-.24.57-.373.79-.033.054-.062.11-.089.165-.2.406-.431.625-.881.582-.252-.024-.66.045-.686.297-.013.125-.027.3-.045.543-.031.418.071.853-.032 1.26-.255 1.007-1.688 1.894-1.39 2.739.129.365.372.727.233 1.089a2.858 2.858 0 0 1-.72 1.078c-.54.496-.998 1.106-1.622 1.497-.367.23-.889.175-1.036-.233l-.08-.232c-.02-.06-.039-.109-.099-.13a.527.527 0 0 0-.369.01 5.83 5.83 0 0 1-.487.196c-.361.118-.603-.293-.616-.674a4.661 4.661 0 0 0-.014-.223.482.482 0 0 0-.271-.381.454.454 0 0 1-.261-.345c-.134-1.256.298-2.57-.254-3.772-.169-.366-.25-.716.035-1 .209-.208.578-.343.872-.367.968-.083 3.108-.385 3.276-.72.261-.523.263-.527-1.178-3.564a.12.12 0 0 1 .011-.121c.048-.067.009-.18-.071-.2a13.21 13.21 0 0 1-1.365-.387c-.144-.053-.205-.261-.239-.41-.055-.243-.084-.46.124-.597.036-.024.072-.049.107-.076a.537.537 0 0 1 .32-.119c.255 0 .414-.003.524-.017.244-.031.282-.342.148-.549-.117-.183-.245-.36-.328-.55-.031-.071.04-.141.117-.156.064-.013.131-.006.181.036.072.06.161.124.248.173a.278.278 0 0 0 .276-.002c.841-.487.174-1.885.808-2.362.207-.155.425-.35.512-.593.061-.168.135-.333.168-.525.003-.017.01-.033-.008-.033-.012 0-.042-.007-.046-.018-.092-.24-.099-.48-.142-.72a.608.608 0 0 1-.009-.104c0-.097-.02-.213-.035-.325-.012-.082.072-.122.119-.053.086.125.146.274.241.39.016.02.154.035.172.017.007-.007.027-.035.023-.043-.362-.933-.361-.935-.152-1.197l.087-.086a.064.064 0 0 1 .09 0l.015.015a.064.064 0 0 0 .045.019c.017 0 .033.007.045.019l.034.033c.029.03.076.03.096-.007l.009-.019a.156.156 0 0 0-.006-.154c-.022-.032-.043-.066-.065-.095a.158.158 0 0 1-.034-.093c0-.034.013-.066.037-.09l.04-.04c.08-.08.202-.1.308-.06.075.028.158.055.241.083a.034.034 0 0 0 .043-.043l-.03-.09a.102.102 0 0 0-.024-.04.102.102 0 0 1-.029-.086c.041-.291.035-.33-.158-.602a.33.33 0 0 1-.06-.188.32.32 0 0 0-.064-.193l-.066-.087c-.018-.025-.039-.048-.059-.072-.085-.103-.137-.24-.232-.334a.39.39 0 0 1-.079-.122c-.167-.4-.56-.611-.732-1.007-.023-.053-.046-.106-.076-.156l-.102-.17c-.007-.012-.011-.008-.011-.022a.152.152 0 0 0-.02-.073.408.408 0 0 1-.085-.24.293.293 0 0 0-.019-.1l-.034-.083a.65.65 0 0 1-.005-.489.047.047 0 0 0 .005-.023.08.08 0 0 1 .034-.063l.076-.05a.164.164 0 0 0 .066-.088c.04-.132.073-.29.048-.42-.006-.035-.013-.07-.013-.104v-.037c0-.01.002-.02.005-.03.022-.066.104-.084.143-.026.285.425.191 1.103.822 1.284.053.015.105.04.123.092l.01.033a.365.365 0 0 1-.045.294c-.035.051-.056.109-.04.168a.822.822 0 0 0 .016.058c.012.039.017.08.024.12.011.072.039.14.046.184a.131.131 0 0 0 .007.034l.034.103a.03.03 0 0 1-.028.039.028.028 0 0 1-.02-.009l-.023-.023c-.014-.013-.036-.023-.053-.013-.04.024-.064.088-.053.134.125.51.22.628.369.775a.727.727 0 0 1 .137.188l.043.087a.12.12 0 0 0 .024.033l.019.02a.064.064 0 0 0 .045.018c.017 0 .033.007.045.018.108.097.298.191.445.242a.024.024 0 0 1 .015.012l.029.058c.004.01.019.006.019-.004 0-.006.004-.01.01-.01.023.003.046.015.069.026a.17.17 0 0 1 .088.11.394.394 0 0 0 .012.049c.019.072.092.132.164.152l.047.013c.05.015.098-.011.121-.058.01-.02.015-.04.015-.062v-.246c0-.023.009-.046.026-.063l.003-.003a.082.082 0 0 0 .024-.057.09.09 0 0 1 .008-.036l.036-.079c.078-.175.279-.207.419-.076.094.088.192.182.311.246.043.023.085.049.12.084l.053.052.052.053.036.036c.011.01.026.017.041.017a.058.058 0 0 0 .046-.023l.091-.122a.36.36 0 0 0 .066-.146l.034-.173c.002-.007.002-.013.002-.02v-.005a.09.09 0 0 1 .027-.064c.016-.017.04-.03.057-.045a.503.503 0 0 0 .098-.137.427.427 0 0 0 .042-.115c.161-.718.229-.892.384-1.041.07-.067.174-.075.267-.05.069.02.124.092.142.161.015.062.036.115.036.148 0 0 0 .012.005.024.015.033.058.05.074.082a.095.095 0 0 0 .085.052h.056c.024 0 .043-.019.043-.043 0-.006.001-.013.004-.019.098-.194.147-.255.014-.625a.297.297 0 0 1-.018-.102c0-.035.008-.07.023-.1l.025-.05a.042.042 0 0 0 .005-.018c0-.024.019-.043.041-.052a.191.191 0 0 0 .031-.017c.022-.015.03-.042.025-.068-.083-.41-.097-.478-.162-.644a2.719 2.719 0 0 0-.085-.193 1.07 1.07 0 0 0-.012-.022c-.252-.351-.26-.364-.403-.65a.122.122 0 0 1-.014-.06.147.147 0 0 0-.007-.041 1.76 1.76 0 0 0-.121-.266c-.076-.132-.161-.264-.209-.409a17.429 17.429 0 0 1-.306-.955.156.156 0 0 1 .155-.192h.029c.024 0 .047.01.064.026l.006.007c.013.013.03.02.049.02a.07.07 0 0 1 .043.015l.244.195.01.01c.027.028.068.042.095.07.028.027.068.01.1-.013.016-.012.033-.024.051-.035a.171.171 0 0 0 .059-.214 2.716 2.716 0 0 0-.284-.512.32.32 0 0 1-.031-.095v-.263s-.014-.08-.023-.1a9.57 9.57 0 0 1-.082-.163c-.082-.164-.224-.224-.381-.317a1.405 1.405 0 0 1-.248-.208c-.036-.034-.088-.055-.115-.097a.474.474 0 0 1-.009-.015c-.02-.033-.035-.07-.054-.105a.253.253 0 0 0-.015-.024.105.105 0 0 1-.02-.06c0-.04-.034-.07-.072-.088a.237.237 0 0 1-.058-.036c-.028-.026-.043-.065-.07-.092l-.011-.01c-.052-.053-.105-.106-.105-.159v-.105c0-.14 0-.156.036-.266a.327.327 0 0 0 .017-.102c0-.02.007-.033.016-.043.028-.03.07-.063.111-.063h.02c.007 0 .013.003.018.008l.021.021c.009.009.026.024.038.024.01 0 .036-.01.034-.018-.081-.314.161-.303.323-.26a.399.399 0 0 0 .103.015h.109c.171 0 .178-.248.076-.385l-.026-.034a.094.094 0 0 0-.003-.004c-.019-.018-.006-.06.017-.074a.168.168 0 0 0 .024-.017c.009-.008.014-.019.011-.03-.007-.024-.027-.034-.04-.053-.013-.02-.001-.044.016-.061a.089.089 0 0 0 .026-.063v-.121c0-.03.018-.043.032-.059.02-.02.044-.046.073-.046.03 0 .053-.024.053-.053v-.053s-.04-.118-.1-.138l-.058-.02a1.113 1.113 0 0 0-.162-.034c-.117-.008-.21.053-.311-.007a58.922 58.922 0 0 0-.1-.06c-.004-.003-.002-.004-.007-.004-.023.001-.081.008-.094-.011l-.246-.37c-.016-.023-.022-.045-.042-.025-.012.012-.037.047-.038.063a.073.073 0 0 1-.006.028c-.02.039-.041.078-.033.12l.039.195h-.078a.065.065 0 0 1-.046-.019c-.02-.02-.052-.026-.073-.008-.058.05-.07.124-.102.201a.204.204 0 0 0-.016.077v.11c0 .033-.029.063-.053.087-.024.023-.053.053-.053.087V72.123a.089.089 0 0 1-.026.064.089.089 0 0 0-.026.063v.113c0 .034-.029.058-.053.034-.009-.008-.017-.017-.03-.022-.012-.004-.023.006-.023.02s-.01.039-.02.05l-.032.031c-.059.06-.052.135-.044.208.009.08-.067.102-.124.045l-.163-.163c-.014-.014-.038-.004-.038.016 0 .058-.064.082-.095.032-.053-.084-.099-.174-.168-.243l-.105-.105-.053-.053-.026-.026a.09.09 0 0 0-.063-.026.094.094 0 0 1-.031-.006 1.641 1.641 0 0 1-.582-.359c-.439-.424-.64-1.053-1.059-1.496-.276-.292-.558-.579-.794-.897a.646.646 0 0 0-.051-.06.428.428 0 0 1-.046-.053c-.015-.022-.029-.042-.039-.061-.11-.191-.169-.517-.213-.733-.039-.192.044-.288-.039-.465a2.574 2.574 0 0 0-.149-.272.192.192 0 0 0-.029-.035.237.237 0 0 1-.054-.085c-.188-.518-.207-.553-.682-1.314-.024-.038-.037-.083-.056-.124-.011-.022-.024-.045-.03-.068-.004-.015.003-.03.014-.042a.06.06 0 0 0 .008-.076 1.04 1.04 0 0 0-.183-.222l-.053-.053-.053-.052-.052-.053-.053-.053-.053-.052c-.05-.05-.49-.54-.805-.577a.108.108 0 0 1-.063-.029l-.003-.002a.08.08 0 0 0-.057-.024.081.081 0 0 1-.036-.008l-.071-.036a.081.081 0 0 0-.036-.008.08.08 0 0 1-.057-.024l-.003-.003c-.017-.017-.043-.026-.057-.008-.011.014-.021.04-.022.083a.01.01 0 0 1-.003.007.216.216 0 0 1-.035.027c-.006.004-.11.065-.115.07-.001.001-.005.006-.005.008v.013c0 .02-.02.037-.041.037-.029 0-.045.033-.029.058.204.34.26.434.275.48.007.02.011.035-.004.05-.012.013-.033.054-.022.069a.181.181 0 0 1 .025.045c.008.022.016.044.032.06l.027.027.024.024a.18.18 0 0 1 .042.068c.024.071.092.126.148.176l.049.048c.07.07.125.152.183.232.07.097.22.284.607.768l.052.053c.035.034.06.077.079.122.103.244.291.432.369.704.023.08.02.168.079.226 0 0 .052.053.052.105 0 .053-.052.053-.052.106 0 .093.041.185.05.278a.076.076 0 0 1-.024.064.089.089 0 0 0-.026.063v.084c0 .024.009.047.026.063.017.017.026.04.026.064v.015c0 .035.008.069.024.1l.012.025a.241.241 0 0 0 .043.06.213.213 0 0 1 .043.06c.033.072.069.16.12.24.035.056.035.147-.031.147-.02 0-.029.023-.016.038.219.227.224.328.179.425-.003.007-.012.01-.018.01-.021 0-.049.028-.038.046.1.162.231.3.362.474a.078.078 0 0 0 .01.013l.047.046c.313.313.36.36.367.4.003.013-.004.027-.014.037a.052.052 0 0 1-.074 0l-.008-.008a.07.07 0 0 0-.017-.012l-.057-.029a.027.027 0 0 0-.039.025.03.03 0 0 0 .005.015c.255.356.607.712.867 1.115.006.01.023.006.023-.007 0-.005.002-.007.006-.003l.037.037a.078.078 0 0 0 .021.015c.174.09.196.187.198.59.001.071.106.107.106.036 0-.044 0-.051-.058-.17a.446.446 0 0 1-.047-.199c0-.058.047-.105.105-.105h.053c.034 0 .066.012.092.034.342.292.795.661.893.915a.298.298 0 0 1 .015.104v.023c0 .02.001.039.005.058.021.105.033.163.039.2.008.048-.025.074-.062.106-.017.015-.05.036-.069.023-.023-.015-.033-.042-.071-.042h-.053c-.066 0-.143-.015-.19.032l-.051.051a.074.074 0 0 0-.022.053v.014c0 .034.045.068.072.087.028.018.052.007.076-.016a.376.376 0 0 1 .061-.047c.032-.018.068-.002.094.024l.03.03c.055.055.133.08.21.067.112-.018.164-.026.205-.03.052-.004.094.05.094.102 0 .007.001.005.003.013.041.166.048.196.049.322.001.048-.044.093-.079.06a.05.05 0 0 1-.003-.003c-.015-.014-.019-.009-.024-.028-.012-.055-.102-.033-.096.023.01.089.031.217.077.35.013.036.032.079.009.11-.018.024-.056-.004-.094-.004.053 0 .053-.052.105-.052a.07.07 0 0 0-.045.017.408.408 0 0 1-.218.088s-.034 0-.047.027c-.007.013.006.026.021.026.014 0 .026.012.032.025.007.013.02.027.047.027h.052c.029 0 .054.025.067.05.009.019.02.034.028.044a.04.04 0 0 1 .011.027c0 .02.016.037.037.037h.034a.07.07 0 0 1 .055.026c.036.043.109.134.165.212.059.081.101.177.14.27.066.156.115.306.192.427.005.008.012.016.018.022l.017.017a.102.102 0 0 1 .03.047c.011.028.059.046.072.072.074.153.038.346.134.538.097.194.239.388.302.582l.014.1v.004c.071.248.118.496.141.632.01.06-.028.103-.088.103h-.106c-.001 0-.052.001-.052.053 0 .222-.063.421.034.621.027.056.052.112.071.168.035.14.047.188.035.203-.014.02-.044.017-.061.034a.091.091 0 0 1-.064.027h-.015c-.093 0-.104 0-.178.108a.107.107 0 0 1-.09.05c-.03 0-.061-.013-.069-.041-.006-.025-.008-.054-.011-.082-.011-.081-.124-.056-.12.026.003.071.041.19.152.412.114.266.064.34-.013.36-.055.016-.108-.024-.134-.075a.156.156 0 0 0-.028-.039l-.035-.035-.053-.053c-.053-.052-.105-.158-.158-.21a.262.262 0 0 0-.126-.066 1.146 1.146 0 0 1-.056-.014.194.194 0 0 1-.119-.101.226.226 0 0 0-.038-.053 9.33 9.33 0 0 1-.03-.032c-.047-.054.033-.105.051-.174.007-.029-.005-.048-.018-.074l-.009-.018a.23.23 0 0 1-.023-.1c0-.035.007-.07.027-.097a.478.478 0 0 1 .096-.095c.054-.043.054-.141.07-.209.023-.098.109-.155.053-.239-.065-.097-.137-.186-.036-.254l-.001-.003-.378-.5a.551.551 0 0 0-.042-.024l-.052-.052c-.053-.053-.106-.053-.211-.316-.049-.099-.144-.151-.2-.2a.16.16 0 0 1-.019-.023 5.04 5.04 0 0 1-.262-.477c-.011-.022-.045 0-.045.024 0 .021-.024.017-.037 0-.037-.05-.073-.113-.11-.154a.085.085 0 0 0-.026-.02c-.185-.1-.244-.283-.376-.39a.105.105 0 0 0-.068-.023.127.127 0 0 1-.105-.056 2.476 2.476 0 0 1-.185-.317 1.986 1.986 0 0 0-.098-.193c-.045-.075-.072-.122-.145-.18-.039-.03-.078-.061-.113-.096-.036-.036-.071-.095-.107-.13-.027-.027-.066-.043-.094-.07a.13.13 0 0 0-.022-.02l-.016-.012c-.203-.172-.256-.13-.139.109a.72.72 0 0 1 .058.155.18.18 0 0 1 .004.04v.048a.089.089 0 0 1-.026.064.091.091 0 0 1-.064.026h-.024c-.083 0-.155.068-.142.149.01.056.031.122.078.264a.41.41 0 0 1 .02.125c0 .062.015.122.041.178.018.04.035.079.046.118.022.074.028.151.045.226.066.301.013.298-.124.209a.152.152 0 0 1-.015-.013c-.048-.048-.168-.024-.126.03a.119.119 0 0 1 .028.071v.011a.13.13 0 0 1-.037.09l-.031.031a.127.127 0 0 1-.09.037c-.034 0-.063-.017-.092-.035-.019-.011-.031 0-.066.035-.034.034-.082.05-.114.014a.28.28 0 0 1-.032-.044c-.008-.014-.011-.031-.015-.047a.212.212 0 0 0-.018-.04c-.033-.06-.137-.057-.137.012 0 .03-.029.054-.045.03a.06.06 0 0 1-.007-.03c0-.053-.072-.08-.123-.096a.187.187 0 0 0-.026-.006c-.04-.006-.082-.011-.114-.037-.074-.057-.125-.143-.211-.23-.067-.067-.141-.136-.206-.205a.864.864 0 0 1-.085-.096c-.108-.143-.068-.397-.092-.575a.492.492 0 0 0-.04-.154c-.04-.086-.153-.077-.22-.01a.182.182 0 0 1-.098.051.57.57 0 0 1-.093.009c-.203-.002-.089-.291.011-.468a.326.326 0 0 0 .034-.154v-.081c0-.03-.018-.043-.032-.059-.021-.02-.045-.047-.074-.047-.088 0-.133-.092-.147-.179-.016-.1-.028-.297-.056-.804-.004-.068-.044-.174-.112-.174 0 0-.069.009-.096.03-.324.25.049.622.092.962.004.033-.025.063-.049.087l-.006.005c-.021.02-.047-.003-.047-.032v-.307c0-.034-.028-.064-.052-.088l-.019-.016c-.017-.01-.033.01-.045.025-.018.026-.08.032-.102.01a5.16 5.16 0 0 1-.074-.074.115.115 0 0 1-.028-.056.458.458 0 0 0-.062-.13c-.022-.033-.05-.075-.028-.108a.241.241 0 0 1 .02-.023.074.074 0 0 1 .053-.022h.022a.052.052 0 0 0 .052-.053.052.052 0 0 0-.052-.053h-.096c-.067 0-.125-.047-.154-.108-.067-.137-.178-.235-.262-.39-.01-.018-.016-.038-.01-.058.023-.072.109-.128.184-.128h.127s.013 0 .031-.006c.054-.017.107-.048.161-.033l.107.034c.086.028.157-.035.105-.11a.187.187 0 0 1-.036-.098c0-.184-.003-.211-.037-.282-.009-.019-.044-.03-.065-.03-.036 0-.047.033-.04.069.01.062.008.098-.003.123-.021.049-.094.037-.136.004a.207.207 0 0 0-.037-.025c-.025-.013-.05.01-.05.039v.026a.026.026 0 0 1-.026.026c-.015 0-.026.012-.033.026-.006.013-.019.027-.046.027-.091 0-.103 0-.173.136a.071.071 0 0 1-.096.034c-.02-.01-.053-.025-.063-.045l-.026-.05a.216.216 0 0 0-.027-.04 1.121 1.121 0 0 1-.118-.199.228.228 0 0 1-.023-.1c0-.148-.141-.203-.201-.297a.07.07 0 0 1-.01-.038v-.033c0-.029.024-.052.053-.052h.004c.031 0 .048.002.067-.022.026-.036.009-.096-.031-.115-.173-.085-.252-.118-.3-.174-.046-.054-.006-.134.065-.136.098-.003.135-.108.078-.188l-.002-.003c-.023-.031-.05-.073-.029-.105.005-.008.013-.016.024-.028a.063.063 0 0 0 .018-.045v-.005c0-.013.006-.027.016-.037a.054.054 0 0 0 0-.075c-.038-.04-.068-.08-.068-.12 0-.063.056-.161.119-.149.033.007.069.019.13.04a.057.057 0 0 0 .031.002c.054-.015.082-.102.062-.154-.086-.216-.318-.23-.474-.314-.047-.025-.043-.097 0-.129s.079-.077.061-.127l-.032-.082c-.032-.081.019-.16.053-.24.027-.067.002-.178-.076-.467-.016-.059.049-.117.11-.117.024 0 .025.011.045.025.043.03.086.038.129.08-.053-.052-.053-.105-.106-.157l-.085-.086c-.013-.012-.021-.028-.016-.046.015-.054.114-.079.159-.044.08.064.123.095.158.11.052.022.13-.017.149-.07.005-.012.002-.028-.004-.04-.101-.217-.356-.202-.556-.27-.043-.014-.071-.055-.102-.088-.021-.023-.005-.057.012-.083a.248.248 0 0 0 .016-.033c.008-.022.002-.046-.006-.068-.223-.626-.247-.696-.213-.777.008-.02.032-.03.05-.042.033-.023.051-.084.035-.121-.146-.328-.175-.381-.238-.361-.026.008-.056.006-.076-.014a.067.067 0 0 1-.019-.047v-.025a.53.53 0 0 0-.053-.208c-.029-.065 0-.141 0-.213a.319.319 0 0 0-.047-.132c-.032-.056-.069-.11-.089-.172l-.019-.058a.036.036 0 0 1-.003-.014v-.03c0-.008.007-.015.016-.015.013 0 .02-.017.011-.026-.197-.198-.462-.475-.409-.718a.088.088 0 0 0-.02-.08l-.013-.012c-.041-.041-.146-.025-.187.016-.015.017-.035.018-.044-.004l-.127-.297a.06.06 0 0 1 .012-.066.06.06 0 0 0 .016-.057c-.04-.156-.053-.177-.192-.214a.248.248 0 0 1-.11-.063.252.252 0 0 1-.069-.142c-.086-.525-.517-.88-.769-1.37a.121.121 0 0 0-.024-.034l-.016-.016a.075.075 0 0 1-.022-.053v-.023c0-.057.095-.109.153-.105.036.002.058-.028.058-.064v-.01a.062.062 0 0 0-.024-.05.148.148 0 0 0-.082-.033h-.105s-.065-.016-.084-.042c-.347-.462-.422-.563-.464-.635-.022-.038-.037-.084-.026-.126a.052.052 0 0 1 .01-.022c.017-.023.051-.011.075.005.07.048.118.118.188.166.017.011.038.011.038-.009a.087.087 0 0 0-.005-.028c-.105-.154-.261-.258-.416-.361a.509.509 0 0 1-.107-.069c-.061-.053-.003-.15.07-.115a.15.15 0 0 1 .023.014c.01.007.023.012.034.009.036-.012.04-.098.016-.127-.045-.058-.076-.104-.175-.173a.054.054 0 0 0-.041-.01h-.003c-.064.014-.226.023-.237-.042-.002-.01.002-.019.007-.03.044-.09.025-.113-.324-.563l-.009-.008a.256.256 0 0 1-.058-.104c-.057-.174-.218-.262-.349-.385-.053-.05.021-.121.086-.089a.043.043 0 0 0 .024.007c.03 0 .038-.036.012-.051-.063-.038-.125-.074-.182-.12-.068-.057-.008-.125.066-.076.129.086.245.18.391.229.021.006.035-.018.019-.034-.255-.204-.558-.309-.769-.554-.012-.014-.023-.021-.011-.035.021-.025.083-.057.108-.036.086.07.178.12.304.204a16.68 16.68 0 0 1-.331-.298c-.074-.07-.065-.177.015-.113.092.074.186.089.099.011a1.004 1.004 0 0 1-.215-.252c-.016-.028.013-.056.04-.038a.05.05 0 0 0 .003.002c.033.02.058-.012.03-.039a.036.036 0 0 1-.01-.024v-.007c0-.039.041-.064.076-.047l.034.016c.065.028.094-.038.038-.081-.103-.081-.125-.092-.2-.13a7.39 7.39 0 0 1-.337-.195c-.092-.057-.034-.12.074-.12h.052c.016 0 .031.004.045.01.04.018.089.026.133.02.091-.01.132-.088.066-.15-.16-.152-.191-.18-.191-.302a.275.275 0 0 0-.016-.103c-.138-.34-.71-.246-.724-.668 0-.028.033-.04.053-.02a.05.05 0 0 0 .006.004c.41.256.418.261.567.41a.163.163 0 0 1 .016.018c.146.186.589.519.772.637.011.008.02-.005.011-.014l-.002-.001c-.212-.284-.52-.472-.779-.725-.125-.122-.044-.22.083-.1.133.122.21.02.073-.097a26.48 26.48 0 0 1-.161-.138c-.181-.156-.096-.29.08-.129.205.19.4.395.655.489.025.009.05-.01.05-.036 0-.05 0-.053-.227-.234a.422.422 0 0 0-.078-.05.596.596 0 0 1-.116-.08c-.086-.074-.178-.124-.304-.207a.145.145 0 0 1-.022-.018l-.028-.029c-.009-.009-.014-.007-.014-.02 0-.037.041-.075.074-.057.219.117.435.174.617.294.03.02.068.042.099.025a.137.137 0 0 0 .033-.027.064.064 0 0 1 .045-.018c.017 0 .033.007.046.017.039.03.082.04.149.068.028.013.053.03.074.053a.297.297 0 0 0 .044.035c.122.08.213.136.298.302.029.057-.014.13-.076.148-.081.023-.062.1.013.137.38.19.552.278.647.334.079.048.188.025.196-.067.006-.075.063-.121.134-.098.031.01.059.018.08.018-.037 0-.048-.027-.07-.042-.017-.012-.035-.027-.035-.048 0-.01-.004-.02-.011-.026l-.01-.008c-.053-.044-.027-.103.04-.087.21.05.268.082.379.19a.043.043 0 0 1-.03.074c-.039 0-.053.041-.021.062.099.066.246.148.284.148 1.972.052 5.171 1.28 6.169 3.584.02.048.002.138-.048.15a.05.05 0 0 1-.029-.003 1.697 1.697 0 0 0-.263-.094c-.058-.011-.107.02-.162.04a.133.133 0 0 1-.063 0c-.176-.036-.353-.007-.53-.067a.16.16 0 0 0-.13.008c-.022.011-.06.004-.08-.011-.218-.174-.247-.185-.581-.186a.437.437 0 0 1-.175-.08c-.156-.11-.176.057-.027.176l.34.272c.526.421 1.21.474 1.684.895.555.504 1.013 1.154 1.606 1.624a.87.87 0 0 0 .166.103c.18.086.594.28.858.35.086.024.159-.05.159-.139a.133.133 0 0 0-.028-.084c-.424-.548-1.606-.422-1.704-1.26-.009-.079.077-.126.144-.085.196.116.33.202.426.269.041.029.112-.056.11-.106-.001-.03.029-.031.056-.022a5.4 5.4 0 0 0 .28.088c.141.038.15-.136.035-.225-.414-.319-.875-.565-1.231-.949a.483.483 0 0 1-.062-.082l-.747-1.23c-.039-.065-.1-.192-.029-.164.089.036.322-.079.247-.139-.466-.373-1.339-1.028-3.746-2.833a.034.034 0 0 1-.013-.027c0-.02.017-.035.036-.032.98.106 1.448.488 1.67.794.02.028.03.062.03.097 0 .034.01.067.029.095.127.184.297.344.478.48.502.379.746.068.264-.337l-.013-.01a.549.549 0 0 1-.04-.037c-.152-.158-1.117-1.173-1.447-1.672-.016-.025.01-.05.035-.033a.013.013 0 0 0 .005.003c.034.014.046-.01.016-.032a11.459 11.459 0 0 1-.499-.37c-.015-.012-.021-.034-.003-.028.024.01.053-.004.033-.02l-.092-.078c-.032-.027-.002-.066.033-.045.141.085.279.173.417.258.104.065.171-.038.081-.122a.666.666 0 0 1-.163-.207c-.013-.026.004-.06.03-.072.033-.016.046-.082.019-.105l-.182-.154c-.109-.093-.05-.17.069-.09l.019.012c.116.077.16-.01.04-.08-.63-.363-1.317-.648-1.824-1.195-.108-.117-.006-.29.151-.258.055.011.114.025.177.04.204.053.341-.204.151-.294a4.443 4.443 0 0 0-.471-.197c-.029-.01-.031.015-.01.037.015.017-.01.026-.029.016-.799-.409-1.459-1-2.301-1.27-.02-.007-.029.012-.01.022.02.01.011.024-.01.015-1.629-.723-3.163-1.636-4.794-2.405-.032-.015-.052-.047-.067-.079-.023-.052.014-.093.07-.08.239.057.513.148.787.24-.138-.06-.08-.185.057-.126.735.315 1.461.653 2.236.878.045.013.068-.045.025-.067a11.686 11.686 0 0 1-1.1-.4c-.01-.003.001-.025.011-.024.009.001.01-.01.002-.014-.427-.21-.885-.354-1.293-.6-.074-.044-.036-.134.047-.11.198.056.386.136.571.207.031.012.05-.034.025-.057-.002-.003-.004-.004-.008-.005-2.656-1.11-5.09-1.867-7.059-2.471-.089-.028-.078-.076.012-.053l-2.999-.79a41.13 41.13 0 0 1 10.438 3.247.024.024 0 0 0 .034-.021.024.024 0 0 0-.013-.022 55.863 55.863 0 0 0-24.405-5.624c-30.84 0-55.89 24.997-55.89 55.889 0 28.802 21.733 52.477 49.71 55.548-.115-.012-.251-.092-.355-.142a4.19 4.19 0 0 1-.365-.194c-.055-.034-.108-.073-.166-.105a1.873 1.873 0 0 0-.383-.144c-.17-.048-.396-.088-.507-.244-.04-.056-.046-.104.039-.098.1.007.2.1.314.092.232-.019.035-.288-.022-.39-.056-.101-.136-.176-.222-.261-.05-.05-.093-.09-.108-.165a.429.429 0 0 1 0-.116c.002-.013.032-.084.033-.087.003-.058-.04-.15-.108-.178-.041-.018-.079.006-.118-.004-.034-.007-.04-.034-.072-.043-.05-.014-.11.015-.161.005-.04-.009-.077-.028-.115-.042-.076-.028-.17-.019-.242-.057-.026-.014-.042-.032-.062-.053-.068-.075-.106-.197-.147-.288a6.76 6.76 0 0 1-.157-.383c-.377-1.008-.545-2.082-.931-3.087-.01-.026.004-.064.019-.087.027-.042.044-.114.024-.16-.71-1.609.077-3.458-.954-5.005-.895-1.263-2.42-1.421-3.579-2.21-1.42-1-2.052-2.737-3.263-3.947a2.87 2.87 0 0 1-.474-.527c-.315-.368-.315-.368-.683-.579-.14-.07-.38-.325-.459-.459-.043-.074-.083-.133-.122-.208-.081-.154-.172-.358-.09-.543.144-.326.924-.198.684-.716-.1-.216-.404-.239-.614-.347-.171-.089-.478-.279-.295-.475.15-.162.32-.237.282-.504-.032-.22-.156-.415-.142-.663.011-.194.127-.391.35-.386.206.004.31.119.506.02.108-.055.091-.032.14-.154.046-.118.036-.218.068-.34.034-.137.178-.367.332-.417.232-.076.355.03.525-.189.113-.145.117-.269.106-.454-.013-.23-.162-.487-.263-.696a7.899 7.899 0 0 0-.405-.736 1.045 1.045 0 0 1-.171-.593c0-.11-.023-.198.064-.284.075-.074.227-.02.274-.075.071-.082.01-.495.01-.603 0-.25-.004-.475.053-.714.059-.244.097-.367.294-.523.177-.141.305-.293.526-.351.191-.05.393-.035.594-.034a.743.743 0 0 0 .419-.104c.35-.184.645-.495 1.034-.611.096-.028.127-.072.252-.047.081.017.113.055.215.064.243.021.163.085.088.277-.075.192-.053.389-.053.595.001.224-.066.412-.07.631-.005.304-.116.822.278.872.208.027.445-.022.424-.282-.013-.166-.173-.292-.282-.417-.109-.125-.347-.329-.242-.49.096-.147.322-.154.454-.207a.49.49 0 0 0 .208-.14c.043-.051.045-.142.084-.195.087-.12.222-.256.369-.29.192-.044.392.063.535.182.135.113.203.302.358.386.361.197.796.346 1.18.492.58.221 1.783.711 2.328.166a.049.049 0 0 0 .015-.037c0-.053.045-.132.097-.129.707.035.867.049.999.149.046.035.036.124-.02.139-.048.013-.096.074-.065.113.288.374.825.458 1.186.755.29.239.59.524.935.67.811.345 1.296 1.167 2.026 1.639.389.252.896.284 1.344.272.513-.012 1.006-.054 1.517.014.216.029.402.098.599.189.262.12.512.28.734.459.13.105.31.141.445.242a2.603 2.603 0 0 1 .513.569c.067.107.12.229.168.346.034.082.064.165.098.246.017.038.06.081.07.123.021.095-.002.232-.002.331 0 .058.004.118 0 .175-.007.106-.068.21-.118.304-.086.161-.248.245-.387.353-.064.049-.117.109-.184.158a.462.462 0 0 0-.154.155c-.023.039-.053.076-.072.113-.022.043-.036.054-.055.108-.01.032-.012.055-.026.087-.058.132-.13.251-.086.404.022.077.115.145.152.215.058.109.073.232.212.27.074.02.11-.011.175-.028.053-.013.102-.004.155-.017.052-.013.117-.05.161-.06a.479.479 0 0 1 .267.03c.066.022.127.055.192.078.07.025.088.016.153.009.133-.016.24 0 .349-.094.122-.105.194-.282.28-.419.066-.107.199-.147.301-.207a.778.778 0 0 1 .254-.11c.118-.021.243-.012.361-.001.356.03.756.1 1.061.295.014.009.155.127.153.128.388-.194.508-.03.565.285.01.054.034.107.084.132l.006.003c.056.028.078.083.086.146.011.077.094.111.171.097 1.302-.223 1.744-.273 3.099.071.272.069.545.145.81.238.565.199 1.135.422 1.654.724.2.117.433.253.565.451.187.282.208.761.21 1.087.001.17-.055.348-.081.515-.018.117-.039.199-.121.287-.639.684-1.552 1.083-2.154 1.806-1 1.158-.948 2.842-2 3.947-.263.316-.526.631-.842.895-.089.089-.217.131-.334.176a6.264 6.264 0 0 1-.358.126c-.466.144-.968.208-1.425.38l-1.409.528c-.449.164-.75.522-.962.94-.074.147-.092.237-.23.311-.167.089-.26.267-.328.438a2.12 2.12 0 0 0-.121.424c-.047.256-.172.556-.438.627-.094.025-.18.071-.272.096-.065.018-.146.003-.213.003-.177 0-.385.007-.544.1-.2.115-.285.39-.308.597a.38.38 0 0 1-.387.349c-.129-.002-.262.012-.39-.003-.099-.012-.19-.039-.29-.037-.092.002-.148-.019-.233-.034-.085-.015-.177.002-.263-.002-.103-.005-.202-.038-.306-.042-.13-.005-.262.011-.392.004-.083-.005-.155-.036-.237-.041-.241-.014-.317.163-.187.348.067.095.182.141.263.221.081.083.202.14.264.243.108.179-.004.449-.103.602a.772.772 0 0 1-.214.225c-.059.037-.14.025-.206.036-.079.013-.144.031-.226.03-.243-.003-.529.046-.764-.009-.198-.046-.394-.127-.56.038-.078.077-.076.099-.03.191.04.079.14.218.021.247-.043.011-.094-.013-.137-.004-.075.017-.08.028-.153.012a.973.973 0 0 0-.353-.012c-.078.021-.198.119-.262.168a.37.37 0 0 0-.126.19c-.025.116.126.247.176.34.048.089.216.209.173.327-.063.176-.342.208-.395.4-.02.075.005.232.086.282.048.029.123.035.176.056.083.033.125.05.215.059.108.011.246.037.32.127.087.106-.038.155-.016.264.035.178.375.189.51.2.631.051 1.264.084 1.896.111.778.033 1.557.05 2.336.05ZM94.507 49.006c-.004 0-.004-.006 0-.008l.033-.023c.01-.007.006-.023-.007-.023h-.008c-.002 0-.004 0-.006.002-.06.03-.119.06-.188.089-.043.018-.062-.017-.02-.038.558-.279.623-.312.667-.352l.017-.016c-.032.032-.027.096.017.082l.07-.024a.098.098 0 0 0 .033-.02c.103-.09.251-.093.4-.141a.062.062 0 0 1 .014-.003.129.129 0 0 0 .05-.016c.019-.011.011-.03-.01-.02-.023.01-.027.002-.003-.009.102-.044.204-.08.305-.119.021-.008.014-.027-.007-.02-.021.007-.029-.013-.008-.02.127-.051.246-.096.345-.16a.053.053 0 0 1 .01-.006c.151-.05.638-.227.84-.297.01-.003.007-.017-.003-.017.067 0 .073.018.013.047l-.013.006-.263.105c.015-.004.018.005.004.011-.07.034-.139.07-.208.102-.02.01-.02.01.001.002.017-.006.023.01.008.02-.04.023-.08.023-.12.023-.054 0-.106.053-.159.053h-.014a.178.178 0 0 0-.073.016c-.066.03-.105.039-.118.065-.006.012.01.024.024.024.024 0 .028.03.006.04-.135.067-.27.08-.404.17l-1.579.895-.297.148a.127.127 0 0 0-.033.025.127.127 0 0 1-.09.038h-.053c-.067 0-.09-.024-.04-.068.257-.225.602-.335.873-.556.003-.003-.002-.008-.006-.007Zm2.804-1.054c-.037 0-.052.022-.074.037.02-.014.041-.037.066-.037h.008Zm-.06-.027a.216.216 0 0 1-.098.027c.024 0 .06-.013.101-.029l-.004.002Zm-5.9 1.988a.14.14 0 0 1 .03-.023c.352-.2.356-.203.667-.359.685-.263 1.158-.368 1.263-.368 0 0 .079.061.024.081a.393.393 0 0 1-.103.023.131.131 0 0 0-.049.013c-.082.04-.086.04-.135.04h-.02a.3.3 0 0 0-.064.008c-.179.04-.388.05-.539.153-.024.016.008.044.035.034.034-.01.021.01-.01.026l-.479.24a.132.132 0 0 1-.059.013.126.126 0 0 0-.042.007c-.129.046-.286.12-.364.144-.013.004-.02-.01-.01-.02.01-.009.003-.025-.011-.023a.601.601 0 0 0-.177.054c-.019.008-.027 0-.006-.003a.028.028 0 0 0 .015-.006l.034-.035Zm1.238 17.716c.15-.01.239.107.184.246l-.01.025c-.033.094.022.216.119.24.11.026.216.02.302.093.087.076.174.144.262.224a.24.24 0 0 1 .076.178c0 .042-.035.085-.048.1a.016.016 0 0 1-.012.005.017.017 0 0 0-.01.03c.37.325.385.345.386.572 0 .019.004.024-.008.038-.03.035-.088.086-.133.075a1.56 1.56 0 0 0-.106-.024c-.067-.011-.069.031-.069.098 0 .032 0 .045-.012.062-.019.027-.035.051-.008.07.028.018.073.053.073.086v.032c0 .04-.026.073-.061.092-.196.106-.177.344-.216.534-.015.079-.092.133-.168.158a.114.114 0 0 1-.134-.05c-.04-.063-.087-.157-.158-.3.105.21.105.21.105.316a.298.298 0 0 1-.02.101.464.464 0 0 0-.014.044c-.028.107-.07.214-.104.319-.027.079-.04.167-.067.257a.071.071 0 0 1-.018.028l-.007.008c-.043.044-.172.062-.188.003-.005-.017-.01-.03-.025-.041a.15.15 0 0 0-.102-.035c-.038.001-.086-.013-.086-.052v-.044a.06.06 0 0 0-.06-.062c-.026 0-.052-.016-.056-.042-.018-.1.025-.181.049-.275.014-.056-.033-.104-.091-.104-.058 0-.106-.047-.113-.105-.02-.153-.067-.301-.018-.425.013-.033.024-.067.039-.1a.125.125 0 0 0-.057-.165.13.13 0 0 0-.036-.013c-.08-.017-.168-.018-.226-.075l-.015-.016a.245.245 0 0 0-.109-.06.235.235 0 0 1-.161-.19c-.037-.477-.05-.535-.156-.61-.027-.02-.064-.038-.094-.024a.057.057 0 0 0-.007.004c-.035.022-.048.066-.06.105l-.02.065a.268.268 0 0 1-.09.125c-.018.013-.044.002-.057-.016a.22.22 0 0 1-.01-.014c-.02-.032-.048-.064-.086-.064a.075.075 0 0 0-.06.03.623.623 0 0 0-.06.1c-.032.083.079.141.165.161.15.036.284.088.298.216.017.15-.166.205-.308.254-.073.025-.132.075-.161.179-.025.088.058.152.144.187.033.014.05.05.055.085.014.113.045.376.045.577.023.228.036.357.047.439.014.098.118.11.177.028l.007-.009c.02-.025.05-.038.08-.026l.012.006c.052.025.098.083.098.14 0 .059.047.1.102.08h.003c.057-.02.105.022.105.082v.174c0 .022.003.044.008.066l.286 1.192c.015.06.023.123.021.185a.259.259 0 0 1-.028.129c-.061.108-.127.216-.099.337.022.097.047.197.034.285-.004.03-.024.05-.054.049-.064-.003-.161.056-.148.118.062.277.235.532.118.816-.015.038-.066.05-.101.027-.062-.042-.173-.02-.185.055a.679.679 0 0 0-.008.072c-.002.039-.032.064-.06.038-.023-.021-.053-.04-.063-.069a1.56 1.56 0 0 0-.199-.41.594.594 0 0 0-.111-.12c-.153-.127-.264-.22-.345-.292-.213-.186-.23-.493-.38-.733-.104-.168-.27-.311-.519-.24a.09.09 0 0 1-.02.002c-.045 0-.07.046-.05.085.126.24.497.91.798 1.125.263.158.263.158.21 1.263 0 .023.01.045.022.064.017.029.031.06.031.094s-.013.067-.043.082a.362.362 0 0 1-.016.007c-.085.035-.205.013-.235-.075a1.143 1.143 0 0 1-.03-.11.275.275 0 0 0-.213-.2c-.182-.043-.464-.126-.61-.26-.048-.045-.084-.1-.125-.151l-.578-.712c-.029-.036-.062-.05-.102-.073a.547.547 0 0 0-.246-.091c-.11-.015-.189-.113-.255-.202-.175-.235-.497-.454-.33-.73a.137.137 0 0 1 .122-.064c.078 0 .155-.054.142-.131a.446.446 0 0 0-.065-.157.374.374 0 0 0-.31-.185c-.071 0-.116-.102-.132-.172a5.688 5.688 0 0 0-.055-.233c-.043-.158-.095-.323-.065-.484.03-.162.014-.248-.048-.35a.053.053 0 0 0-.045-.024.056.056 0 0 1-.04-.017 2.783 2.783 0 0 0-.175-.168c-.04-.031-.09-.046-.127-.08a.564.564 0 0 0-.152-.101c-.05-.026-.161-.006-.161.05v.053c0 .14 0 .281-.075.422a.098.098 0 0 1-.088.051.115.115 0 0 1-.08-.032l-.125-.126-.053-.052a.075.075 0 0 0-.105 0c-.4.393-.752.653-1.105-.053-.05-.099-.053-.105.209-.541a.38.38 0 0 0 .054-.196c0-.046.082-.093.137-.139a.11.11 0 0 0 .031-.044c.038-.096.061-.154.079-.191.018-.041.121-.039.121.006v.01c0 .023.02.043.043.043.006 0 .013.001.019.004l.076.038c.013.007.028.01.042.01.02 0 .04.007.055.019.172.127.196.127.434-.109.043-.043.093-.07.15-.046.08.035.181.066.26.026.094-.049.18-.1.29-.1.905.082.834-1.536 1.33-2.298.057-.086.106-.178.143-.281.333-.957.238-1.42.184-1.573a.089.089 0 0 0-.088-.058.105.105 0 0 1-.074-.028c-.191-.199.096-.477-.002-.677a.062.062 0 0 0-.058-.032.486.486 0 0 0-.078.008c-.039.008-.095-.022-.095-.06a.352.352 0 0 0-.016-.104c-.032-.106-.019-.136.104-.341.012-.02.02-.045.008-.063-.03-.044-.077-.085-.13-.087-.293-.01-.671.353-.79.472a.07.07 0 0 1-.047.017c-.04 0-.063-.04-.051-.077a.833.833 0 0 1 .132-.27c.034-.049.06-.109.105-.147a.992.992 0 0 1 .032-.025.134.134 0 0 1 .153-.013c.015.007.035.008.052.01.412.071.524-.436.11-.918-.068-.08-.03-.191-.03-.297 0-.044-.037-.088-.08-.132-.016-.017-.042-.028-.06-.015-.04.028-.07.004-.07-.044v-.005c0-.01.001-.019.004-.028.044-.138.057-.284.044-.42-.041-.441-.324-.173-.522.223-.257.513-.363.226-.466-.08-.005-.016-.013-.028-.028-.034-.065-.027-.328.152-.34.22l-.008.05v.005c-.001.03-.097.025-.115 0a1.093 1.093 0 0 0-.103-.115c-.025-.025-.067-.025-.1-.012a.35.35 0 0 1-.096.017c-.038.003-.065.001-.086-.031-.021-.032-.042-.088-.069-.115l-.01-.01-.042-.042a.037.037 0 0 1-.01-.026v-.011a.026.026 0 0 0-.027-.026.026.026 0 0 1-.026-.027.026.026 0 0 0-.027-.026c-.251 0-.29-.005-.463-.14-.058-.045-.13-.074-.2-.053-.056.015-.107.04-.16.058-.08.029-.132-.042-.108-.123.011-.04-.008-.072-.033-.104-.048-.063-.033-.125.081-.416.032-.081.001-.17-.086-.17a.314.314 0 0 0-.083.013c-.094.04-.191.045-.329.089a.058.058 0 0 1-.03.002c-.053-.014-.078-.101-.073-.157.026-.235 0-.504.085-.774a.095.095 0 0 0 .005-.029c0-.024.01-.047.026-.065l.014-.014c.051-.055.124-.136.2-.14h.017c.041.002.058.047.073.085.02.048.055.096.09.096.053 0 .053 0 .106-.053l.036-.036a.056.056 0 0 1 .04-.016c.018 0 .036-.01.046-.025.055-.083.076-.12.084-.208a.445.445 0 0 0-.188-.386 3.729 3.729 0 0 1-.122-.096c-.11-.092-.07-.249.032-.35.146-.145.32-.258.377-.462a.392.392 0 0 0 .01-.105c0-.034.005-.07.021-.1.06-.122.182-.212.274-.3.014-.013.022-.011.022-.03 0-.015.004-.05.012-.062.142-.209.306-.396.445-.592.126-.178.273-.344.452-.469.12-.084.197-.152.292-.277a.043.043 0 0 0 .009-.026c0-.022.007-.053.017-.072l.026-.052a.111.111 0 0 1 .027-.034c1.073-.92 1.092-.933 1.846-1.034.02-.002.04.004.053.018a.06.06 0 0 1 .012.07c-.27.55-.833.76-1.244 1.171-.263.263-.421.421-.948 1.421-.42.79-.42 1-.42 1.368v.053a.107.107 0 0 1-.04.087c-.128.096-.308.113-.457.187-.132.067-.003.17.139.212a.438.438 0 0 1 .066.026c.017.009.028.022.028.041 0 .052.067.076.094.032.155-.252.448-.744.485-.908.006-.028-.022-.044-.043-.063-.03-.027-.062-.069-.062-.11a.467.467 0 0 1 .04-.213.225.225 0 0 1 .032-.052c.207-.246.46-.352.665-.607.214-.3.219-.669.355-.995.05-.119.201-.118.192.01-.004.046-.01.09-.007.135.005.062.091.07.091.008 0-.14-.04-.28-.014-.456.007-.042.043-.075.074-.104.023-.021.056-.004.073.022.066.098.087.114.175.116.039.001.066 0 .087-.032.021-.032.01-.087-.013-.118-.098-.13-.06-.26.056-.39.02-.022.034-.04.055-.02a.25.25 0 0 1 .037.056c.012.032.05.04.05.084 0-.035.023-.094.054-.145.028-.045.103-.067.103-.013 0 .066.09.06.131.01.366-.446.422-.48.854-.484.08 0 .098.033.052.099l-.48.7a.172.172 0 0 0-.03.096c0 .179-.098.334-.177.48-.07.13-.08.282-.126.421-.061.186-.191.391-.366.567a.607.607 0 0 0-.138.273.209.209 0 0 1-.106.134.07.07 0 0 0-.035.06v.017c0 .026.012.048.039.048.003 0 .016 0 .019-.002.371-.085.449-.432.622-.676.047-.067.12-.02.112.062a.479.479 0 0 0-.002.037c0 .029.023.052.052.052.03 0 .051.024.043.052a1.013 1.013 0 0 1-.005.017c-.017.057.027.083.065.037.165-.203.287-.505.562-.57.108-.026.199.08.31.091a.807.807 0 0 0 .037.003c.118.005.204.09.278.182.01.012.02.024.034.038.028.03.044.068.032.107-.012.041-.03.087-.037.123-.003.014.005.026-.01.026-.014 0-.046.011-.046.026-.001.088-.013.152-.15.38a.059.059 0 0 0 .024.083l.058.03a.11.11 0 0 1 .028.02.094.094 0 0 1 .025.095c-.073.218-.296.326-.398.558a.096.096 0 0 0-.008.04c.002.057.086.05.126.01.103-.102.166-.16.223-.19.11-.058.151.1.05.17-.087.061-.162.13-.183.24-.004.024.023.035.04.019a.026.026 0 0 1 .018-.008c.024 0 .035.002.049.01a.092.092 0 0 1 .034.103c-.011.041-.028.091-.036.144-.005.032.02.059.052.059a.061.061 0 0 0 .06-.045.69.69 0 0 1 .054-.172c.02-.033.064-.047.092-.02.028.028.068.01.096-.017l.01-.01c.027-.027.16-.017.172.02.042.13.063.15.124.181a.058.058 0 0 1 .028.03c.045.111.076.366-.113.521a.37.37 0 0 1-.116.06.336.336 0 0 0-.158.094c-.028.026-.045.065-.026.1l.004.006c.017.029.07.041.104.041.034 0 .046-.013.07-.037l.13-.13c.028-.028.06-.054.096-.037.036.018.053.069.053.108v.014c0 .02-.004.04-.01.058l-.017.05a.514.514 0 0 1-.076.146c-.089.12-.105.144-.107.175a.047.047 0 0 0 .015.037c.02.02.053.02.074 0a.3.3 0 0 1 .092-.066c.09-.04.19.032.15.122a.306.306 0 0 1-.032.052c-.037.047-.043.093-.09.14.18-.18.207-.206.308-.21.034-.001.064.028.087.052a.11.11 0 0 1 .019.021c.009.016.022.032.04.032.013 0 .024.007.03.017.046.07.138.116.202.156.035.021.05.06.039.1-.012.038-.029.082-.036.117-.004.017-.018.03-.035.03h-.003a.27.27 0 0 0-.118.047.1.1 0 0 0-.008.009c-.1.15-.104.156-.295.25-.011.007-.019.024-.019.037 0 .03.041.045.069.031.022-.011.045-.022.068-.04a.073.073 0 0 1 .049-.017.07.07 0 0 1 .017.003c.045.014.047.078.025.119a1.688 1.688 0 0 1-.095.152.06.06 0 0 0 .007.076.057.057 0 0 0 .043.017c.021 0 .031-.005.051-.023a.183.183 0 0 0 .045-.067l.008-.021c.067-.166.247-.118.316.047.142.343.155.425.068.487a.336.336 0 0 1-.197.051c-.097 0-.105 0-.269.041-.007.002-.08.012-.088.012-.002 0-.012.002-.013.004-.027.083-.025.136-.009.175.025.063.101.082.169.086.061.003.083.014.157.05.065.033.09.046.15.05.108.01.243.049.303.14.095.144-.004.3-.159.378a.991.991 0 0 1-.061.029c-.08.033-.166.01-.238-.039-.09-.06-.152-.1-.204-.12-.114-.045-.148.117-.078.218.015.02.025.037.035.054.027.047.023.103-.02.136-.063.048-.134.122-.119.2l.016.084c.008.052-.014.105-.064.12-.002 0-.005 0-.007.002-.08.02-.163.058-.165.14-.005.176.147.345.4.345h.053c.058 0 .03.174.008.228a.154.154 0 0 0-.003.008c-.006.017.002.035.015.048l.014.014a.064.064 0 0 0 .09 0l.012-.013c.014-.014.015-.021.034-.021.041 0 .093.033.093.074V66.361a.026.026 0 0 1-.007.018.026.026 0 0 0 .018.045h.027c.01 0 .019-.004.027-.01a.56.56 0 0 1 .273-.087c.112-.005.142.123.106.23a.115.115 0 0 0 .112.157h.055c.083.002.148.069.16.151.011.08.006.194-.017.5-.01.134.057.273.191.265a.91.91 0 0 0 .017 0Zm-5.804-11.78.001-.005c.053-.355.594-.562.724-.48.009.005.013 0 .013.01 0 .02.017.052.036.046.07-.02.083-.1.174-.1.036 0 .047 0 .067.016a.113.113 0 0 1 .038.09v.12a.09.09 0 0 1-.026.064l-.008.007a.064.064 0 0 0-.018.045.064.064 0 0 1-.019.045c-.033.034-.027.034.019.034.048 0 .052 0 .134-.04a.112.112 0 0 1 .05-.013.143.143 0 0 0 .05-.01c.09-.034.134.01.134.01a.072.072 0 0 1 .023.047c.003.041-.032.085.01.085.041 0 .084.055.06.089a234.99 234.99 0 0 1-.198.2c-.213.213-.472.374-.688.583a5.307 5.307 0 0 0-.049.049l-.053.053-.052.052-.016.016a.127.127 0 0 1-.09.037c-.105 0-.105.158-.157.21-.053.053-.158.106-.21.158l-.038.037a3.409 3.409 0 0 1-.362.414c-.008.009-.022.023-.022.012 0-.01-.01-.037-.019-.032-.068.033-.084.039-.112.016a.08.08 0 0 1-.027-.062v-.016c0-.035.016-.075-.005-.103-.031-.043-.143-.041-.243-.03-.114.012-.225.071-.225.185a.54.54 0 0 1-.036.174.877.877 0 0 1-.216.34c-.129.127-.315.31-.454.438-.1.091-.265.1-.4.1-.047 0-.094.087-.18.065-.02-.005-.03-.024-.03-.043 0-.014.005-.026.015-.036l.019-.02a.063.063 0 0 0 .019-.044c0-.017.006-.033.018-.045l.034-.034a.737.737 0 0 0 .09-.117c.027-.04.058-.08.087-.119.063-.084.121-.172.184-.257.22-.296.41-.652.64-.928l.033-.034a.064.064 0 0 1 .045-.019.064.064 0 0 0 .045-.018l.034-.034c.035-.035.073-.067.11-.1.219-.194.573-.638.675-.789a1.208 1.208 0 0 1 .257-.248c.022-.012.038.01.029.034-.012.029.023.055.037.027.03-.06.046-.12.05-.132Zm2.264-3.16a2.85 2.85 0 0 0-.31.1c-.263.095-.391-.153-.111-.153.035 0 .092.026.12.005.11-.078.189-.142.236-.12.008.005.018.004.012.01-.016.016-.018.04 0 .029a.97.97 0 0 0 .158-.134l.053-.053.139-.14a.064.064 0 0 0 .019-.044.06.06 0 0 1 .018-.045c.05-.046.127-.11.214-.177.297-.228.303-.192.136.143l-.064.096a1.281 1.281 0 0 1-.094.114c.053-.053.12-.093.18-.132.105-.07.204-.147.294-.236l.052-.053c.035-.034.077-.061.116-.092.046-.036.056-.066.095-.066 0 0-.053-.023-.053-.052 0-.053.316-.263.474-.263h.105c.03 0 .056.025.04.05a.217.217 0 0 1-.015.022c-.053.066-.021.108.054.07a.401.401 0 0 1 .024-.013c.052-.023.086.026.05.07-.214.26-.95.827-1.216 1.007-.06.041-.127.078-.187.119a.755.755 0 0 0-.08.06.119.119 0 0 0-.038.088c0 .053 0 .053-.105.158l-.207.167c-.083.066-.135.017-.06-.058l.037-.037c.012-.012.03-.02.012-.02-.016 0-.052.008-.064.02l-.026.025a.17.17 0 0 1-.018.016c-.56.408-.569.515-.57.519 0 .052-.052.052-.104.105l-.053.053-.016.015a.127.127 0 0 1-.09.037c-.034 0-.068-.012-.102-.014-.07-.006-.118.049-.195.022a.029.029 0 0 1-.018-.028c0-.018-.015-.033-.033-.03-.05.004-.089.02-.131.02-.063.003-.084-.06-.04-.104.054-.052.132-.114.19-.15.04-.026.086-.05.12-.084.04-.04.08-.05.12-.075a.176.176 0 0 0 .058-.073c.021-.041.035-.088.067-.121a.482.482 0 0 1 .022-.021c.061-.056.144-.09.218-.127.123-.062.312-.169.439-.258.092-.065.24-.167.128-.167Zm2.13-.816a.318.318 0 0 0 .048-.061.263.263 0 0 1 .083-.087c.007-.005.013-.01.021-.014a.477.477 0 0 0 .062-.05.309.309 0 0 1 .084-.055.443.443 0 0 0 .082-.057c.01-.01.019-.014.03-.016.025-.005.05-.008.073-.02.069-.038.116-.077.182-.115a.031.031 0 0 1 .047.028v.052a.19.19 0 0 1-.028.098c-.092.154-.12.2-.147.233a.114.114 0 0 1-.089.038c-.041 0-.05 0-.078-.027-.01-.01-.027-.002-.027.011 0 .009.007.016.016.016h.037c.029 0 .052.023.052.052v.06c0 .029-.011.057-.032.078l-.073.073c-.053.053-.105.105-.158.105h-.105a.114.114 0 0 0-.05.008c-.004.002-.006-.002-.004-.005.001-.002 0-.002-.003-.001a.18.18 0 0 0-.025.012.016.016 0 0 1-.023-.014v-.053c0-.052 0-.052-.053-.052-.105.053-.105.105-.105.158v.052c0 .02-.012.036-.027.047a1.287 1.287 0 0 1-.07.052.048.048 0 0 1-.023.007.112.112 0 0 0-.046.014c-.016.009-.037 0-.02-.008.01-.006.028-.016.024-.028l-.001-.002c-.01-.02-.021-.055-.006-.07l.011-.012.053-.052c.03-.031.048-.086.068-.124.013-.024.035-.058.075-.117a.278.278 0 0 1 .034-.041l.112-.113Zm-.418.868c.013 0 .025.01.024.023-.015.29-.316.247-.47.448.006-.006.216-.229.432-.463.004-.005.008-.008.014-.008Zm1.498.632h.01c.023 0 .043.019.043.043a.04.04 0 0 1-.005.019.45.45 0 0 1-.126.136c-.02.016-.033.089-.01.1.008.004.035.023.035.033 0 .038-.005.048-.052.143-.106.157-.106.157-.316.315-.316.21-.316.21-.421.421-.096.144-.104.33-.184.481a.088.088 0 0 1-.08.046c-.14 0-.24.168-.372.241-.023.013-.048-.005-.048-.03v-.053a.053.053 0 0 0-.053-.053c-.036 0-.071.024-.107.04-.027.011-.05-.011-.05-.04v-.028c0-.014.002-.026-.012-.023-.021.004-.058.017-.053-.004.011-.054.068-.131.106-.232a.175.175 0 0 1 .032-.051.481.481 0 0 0 .03-.038c.106-.148-.014-.217-.084-.047l-.015.04a.085.085 0 0 0-.005.03c0 .023-.01.047-.026.064l-.026.026c-.11.11-.144.143-.189.17-.047.03-.106.033-.156.056a1.724 1.724 0 0 0-.067.032.043.043 0 0 1-.02.005h-.016a.026.026 0 0 1-.026-.026.026.026 0 0 0-.026-.027h-.011c-.01 0-.02.004-.027.011-.033.033-.044.04-.095.041a.16.16 0 0 0-.089.036c-.007.005-.01.006-.012.002-.012-.021.006-.047.023-.063l.016-.016a.037.037 0 0 0-.026-.064h-.004a.041.041 0 0 0-.022.007.517.517 0 0 1-.297.099c-.006 0-.011.005-.009 0 .016-.031-.014-.072-.045-.057l-.097.05a.07.07 0 0 1-.033.007h-.021c-.078-.006-.089-.1-.037-.158.062-.069.13-.131.193-.2.043-.047.027-.044-.036-.048-.021-.002-.043-.018-.06-.006-.025.017-.035.057-.074.096l-.004.004c-.032.031-.05.075-.077.11a.292.292 0 0 1-.105.09c-.013.006-.025-.005-.025-.02a.026.026 0 0 0-.026-.026h-.026c-.03 0-.054-.024-.051-.053a.166.166 0 0 1 .05-.105l-.052.053c.074-.074.096-.096.102-.121.006-.02.005-.037-.015-.037-.01 0-.038.004-.045.01l-.028.028c-.07.066-.144.01-.1-.076l.021-.044a.162.162 0 0 1 .03-.042l.018-.017a.273.273 0 0 0 .03-.036c.1-.142.244-.242.39-.383a.01.01 0 0 0-.008-.019.01.01 0 0 1-.008-.019l.034-.034c.74-.641.786-.681.832-.77a.138.138 0 0 1 .025-.034l.008-.008c.019-.02.026-.048.044-.068a.047.047 0 0 1 .004-.003c.018-.015.044-.02.06-.038l.016-.015a.041.041 0 0 1 .028-.01c.035 0 .044.11.023.138l-.067.09c-.01.014 0 .034.018.034a.022.022 0 0 0 .015-.006l.046-.046c.049-.049.053-.097.174-.226a.021.021 0 0 1 .037.015.127.127 0 0 1-.037.09l-.016.015c-.02.02-.006.043.016.027a.433.433 0 0 0 .052-.042c.014-.014.037-.004.037.015v.053c0 .024.026.04.044.024.023-.02.04-.042.056-.062.038-.05.08 0 .06.059-.012.035-.023.07-.043.114a.146.146 0 0 1-.03.041l-.018.018a.139.139 0 0 1-.036.027c-.052.026-.072.037-.08.053-.01.02.014.042.038.042a.042.042 0 0 0 .019-.005c.057-.029.082-.04.114-.033.051.011.106 0 .13-.047a.117.117 0 0 0 .01-.043l.003-.023c.031-.166.608-.35.756-.431l.148-.08c.026-.015.057-.02.082-.036.006-.004.012-.008.018-.01.033-.007.045.042.045.076 0 0 .047.102.103.086.054-.014.111-.031.165-.027.072.007.103.09.065.151l-.04.062c-.02.029-.011.044.023.044Zm-.13-2.303a.555.555 0 0 1-.048.06l-.084.084a.468.468 0 0 1-.121.088l-.029.014a.109.109 0 0 0-.017.01c-.072.054-.15.108-.227.162-.062.044-.143-.051-.09-.106.013-.013.009-.02.016-.036a.55.55 0 0 1 .1-.131c.019-.02.035-.012.017.008-.015.017.005.033.023.02a.458.458 0 0 0 .125-.154.309.309 0 0 1 .123-.131.06.06 0 0 1 .026-.006.196.196 0 0 0 .053-.008c.15-.042.22-.003.132.126Zm-5.574.447c-.007.004.007-.025.012-.03.006-.006.039-.016.046-.02.034-.02.086-.07.278-.146-.057.018-.113.044-.17.07-.16.07-.213-.01-.055-.09a.085.085 0 0 1 .004-.002c.041-.02.09-.029.129-.054a.55.55 0 0 0 .081-.072c.007-.006.02-.01.01-.01-.032 0-.062-.039-.032-.053.05-.026.148-.063.378-.15a.139.139 0 0 1 .048-.008.136.136 0 0 0 .054-.011c.238-.102.311-.133.351-.143.024-.005.048.009.03.025-.034.03-.039.05.004.038.407-.119.783-.338 1.198-.48a.146.146 0 0 1 .046-.008.151.151 0 0 0 .056-.01c.695-.279.76-.304.962-.345a.496.496 0 0 0 .121-.042l.032-.016a.162.162 0 0 1 .033-.012c.154-.04.281-.078.424-.117.039-.011.047.01.01.024-.034.012-.023.043.012.037.164-.029.286-.125.427-.19.073-.035.1.038.032.08-.09.055-.185.112-.247.147a.443.443 0 0 1-.088.023c-.002 0-.01 0-.01.002-.21.103-.42.104-.577.209-.394.197-.781.406-1.184.584l-.816.363c-.067.022-.105.035-.151.054-.152.064-.233.06-.085-.015a.662.662 0 0 0 .104-.064l.027-.028c.026-.026.066-.04.106-.053.074-.024.14-.07.21-.104.119-.06.255-.103.389-.157.1-.041.07-.117-.025-.069-.09.045-.174.097-.257.134-.03.014-.041-.007-.013-.022.025-.013.016-.037-.01-.028a1.513 1.513 0 0 0-.347.188c-.041.032-.076.076-.122.1-.084.044-.23.111-.377.177-.13.06-.162-.007-.027-.055.117-.042.063-.127-.05-.073-.346.162-.623.488-1.014.584-.013.004-.02-.011-.012-.02.009-.009.003-.02-.007-.015-.025.014-.035.043-.071.045-.003 0-.006 0-.008.002-.02.01-.03-.008-.013-.018.034-.02.085-.045.174-.09.14-.069.279-.139.403-.208.073-.041.053-.11-.022-.075-.116.054-.25.151-.401.218ZM84.26 53.9c0-.346.498-.483.842-.526.207 0 .312-.255.517-.162a.048.048 0 0 0 .02.004h.015c.015 0 .027.012.027.026 0 .015.012.027.026.023.042-.012.079-.049.079-.049l.052-.053c.053-.052.106-.052.211-.105l.036-.018c.088-.044.08-.06-.016-.033a.223.223 0 0 1-.04.008.042.042 0 0 1-.031-.076.325.325 0 0 1 .067-.04c.034-.016.013-.059-.009-.027-.01.015-.019.033-.036.039l-.112.04c-.18.066-.23-.037-.056-.114.16-.072.328-.135.484-.234.012-.008.029-.018.029-.033 0-.01-.008-.038-.019-.038-.036.004-.083.03-.386.211-.025.015-.03 0-.007-.017.018-.013.006-.03-.014-.02-.034.015-.067.036-.1.036-.421.264-.474.316-.58.316h-.052l.053-.052.052-.053.053-.053c.02-.02.005-.049-.02-.039-.137.053-.207.243-.38.255-.031.002-.044-.035-.021-.058.027-.027.054-.04.074-.054.032-.022.053-.062.087-.08.028-.013.055-.028.08-.042.05-.027.034-.063-.02-.047a.528.528 0 0 1-.025.007c-.02.005-.038.006-.038-.016 0-.009.003-.035.008-.041.21-.254.699-.55.775-.472.005.005.006.002.006.009 0 .023.02.052.042.047a1.98 1.98 0 0 0 .287-.088c.128-.048.107-.155-.01-.086-.12.07-.163-.03-.04-.094.12-.062.251-.112.315-.135.018-.006.038-.009.038.011 0 .008.002.032.01.035.069.037.343 0 .474-.08.029-.017.023-.032-.01-.032h-.144a.09.09 0 0 0-.028.005c-.107.035-.135.044-.164.025a.11.11 0 0 1-.033-.062c0-.005.002-.022.005-.025.12-.11.734-.416.89-.416.041 0 .05 0 .078.026.01.01.027.031.027.045 0 .008.007.034.015.032a.409.409 0 0 0 .124-.085.01.01 0 0 0-.008-.018c-.01 0-.014-.012-.006-.018.067-.056.242-.152.74-.29.014-.004.03-.013.03.002 0 .013-.009.048-.02.054l-.62.382a.13.13 0 0 0-.045.08s.18.045.069.128c-.054.041-.108.08-.142.108a.732.732 0 0 1-.067.05c-.298.187-.397.26-.427.283-.008.006-.006.01.004.01h.003c.019 0 .034.015.034.034a.035.035 0 0 1-.015.029c-.11.074-.243.17-.365.257-.028.02-.064.08-.03.072.019-.005.094-.004.094.016v.013c0 .109-.024.176.064.112.08-.058.205-.158.41-.322.053-.053.158-.106.21-.158a.4.4 0 0 1 .21-.105c.055 0 .152-.057.233-.111.093-.063.179-.137.265-.21.252-.211.33-.247.924-.521.19-.095.337-.233.557-.26.027-.002.041.03.022.049a.863.863 0 0 1-.113.096c-.19.135-.381.23-.571.325-.314.21-.576.366-.888.575a1.594 1.594 0 0 1-.258.187c-.03.017-.035.035 0 .03.016-.002.043.012.037.028-.012.032-.067.069-.311.232l-.002.001c-.01.01.002.025.013.019a.263.263 0 0 0 .06-.04.147.147 0 0 1 .066-.032c.005 0 .021-.002.025-.005l.034-.035a.136.136 0 0 1 .029-.022c.06-.035.278-.16.37-.226.014-.01.035-.012.035.005 0 .005-.001.021-.005.025-.143.14-.72.568-.893.695a2.695 2.695 0 0 1-.1.07c-.445.298-1.155.78-1.379.768-.029-.001-.046-.004-.043-.033.01-.083.044-.133-.031-.095l-.01.004a.083.083 0 0 1-.027.008c-.052.005-.17-.002-.218.016-.157.056-.324.096-.471.132a.28.28 0 0 0-.063.024c-.177.092-1.086.558-1.18.51h-.106l-.014-.014a.05.05 0 0 1 .002-.073c.38-.333.38-.335.38-.386Zm-.398 3.058c.014-.005.025.01.02.023l-.02.06c-.004.013-.065.111-.075.12l-.002.004-.135.27a.03.03 0 0 0 .028.044h.006c.26-.053.261-.054.576-.369.15-.15.157-.396.34-.464.014-.006.028.005.028.02 0 .013.01.023.023.023h.014a.04.04 0 0 0 .027-.01c.024-.022.057-.046.09-.083.065-.074.032-.091-.061-.06-.047.017-.094-.038-.086-.087.029-.166.136-.343.254-.417.025-.016.051.005.038.032l-.014.029c-.012.024.011.037.03.017.092-.09.144-.261.259-.373.035-.035.075-.065.11-.1l.053-.053.019-.018a.297.297 0 0 1 .076-.056l.045-.022a.085.085 0 0 1 .038-.009h.059c.014 0 .026.012.026.026 0 .015.012.027.026.023a.117.117 0 0 0 .046-.03c.032-.031.065-.085.101-.112a.056.056 0 0 1 .025-.011.049.049 0 0 0 .023-.01c.024-.022.062.022.044.049a.283.283 0 0 0-.054.153c0 .011.003.022.01.03.09.114.215-.019.313-.09a.163.163 0 0 1 .097-.028c.053 0 .053-.053.106-.053 0 0 .04.025.027.046-.055.09-.195.29-.42.413a.053.053 0 0 0-.028.047.05.05 0 0 1-.015.036l-.014.014a.081.081 0 0 0-.024.057.074.074 0 0 1-.009.036c-.11.2-.364.303-.517.457l-.034.034a.307.307 0 0 1-.04.034c-.16.113-.347.172-.494.288-.054.042-.026.098.035.068l.01-.005.009-.003c.164-.065.256.035.151.178a3.387 3.387 0 0 1-.117.148c-.06.06-.097.097-.119.123-.03.034.068.048.11.034.039-.013.015.031-.005.066-.026.046-.086.13-.223.322a.413.413 0 0 1-.044.052l-.461.461c-.094.094-.17.206-.258.305-.089.098-.223.177-.317.27l-.045.045c-.033.034-.088.088-.163.137-.07.045-.213-.03-.287.008-.031.016-.038.027-.062.052l-.044.043a.32.32 0 0 0-.04.05c-.16.244-.404.34-.404.29 0-.03.016-.06.03-.088.013-.025-.01-.037-.03-.018l-.02.02a.019.019 0 0 1-.033-.012c0-.005.002-.01.006-.013l.047-.048c.05-.05.053-.052.097-.14a.08.08 0 0 0 .008-.037.08.08 0 0 1 .024-.057l.003-.002a.216.216 0 0 0 .039-.061c.073-.153.428-.731.412-.943-.002-.014-.014-.023-.027-.023-.016 0-.03-.014-.023-.028a.102.102 0 0 1 .02-.024c.023-.024-.002-.05-.034-.06-.075-.025-.034-.105.045-.188.01-.01.02-.021.027-.032.104-.144.162-.287.24-.43.055-.102.213-.205.308-.271.071-.05.146-.103.2-.12Zm-6.817-.163c-.026 0-.048-.023-.035-.046a.163.163 0 0 1 .006-.01c.022-.031.03-.093-.008-.099-.031-.005-.044-.036-.02-.056a.54.54 0 0 1 .22-.098.321.321 0 0 0 .098-.034l1.112-.657c.475-.329 1.002-.62 1.507-.9l1.23-.679c.116-.077.147-.098.197-.124a.492.492 0 0 0 .118-.087c.09-.09.212-.147.321-.21.02-.012.04-.022.067-.036a.23.23 0 0 0 .06-.043.231.231 0 0 1 .06-.043l.019-.01a.363.363 0 0 0 .094-.068l.011-.01c.21-.211.368-.211.421-.211h.092c.009 0 .02-.006.013 0-.027.027-.03.049.008.043l.105-.018c.094-.016.198.021.29-.004a5.298 5.298 0 0 0 .233-.074c.02 0 .031.023.018.039-.149.18-.333.284-.434.47-.006.01-.019.018-.006.018.018 0 .052.015.046.032-.008.023-.039.04-.147.095-.015.008-.026.03-.01.03.015 0 .038.017.028.027-.035.032-.07.06-.105.086-.057.043-.023.107.043.08.084-.034.165-.072.248-.107.11-.047.2.06.127.155-.197.256-.5.407-.707.654l-.052.053c-.069.068-.136.212-.222.257-.046.024-.065.02-.11.047-.197.118-.22.127-.458.222-.096.048-.148.052-.237.093a.131.131 0 0 1-.055.012.126.126 0 0 0-.046.01c-1.594.647-1.661.675-2.127 1a.85.85 0 0 0-.114.095c-.047.048-.052.052-.204.13-.027.013-.059.01-.059-.02 0-.022-.018-.057-.039-.049a.221.221 0 0 0-.058.037 1.228 1.228 0 0 1-.167.098.281.281 0 0 0-.09.053.127.127 0 0 1-.033.024 1.623 1.623 0 0 0-.254.159c-.028.027-.068.04-.095.068-.028.028-.069.042-.098.067-.15.127-.6.484-.768.49-.013 0-.018-.015-.008-.025.012-.012.003-.03-.012-.025-.06.017-.101.068-.137.089-.015.009-.03.008-.03-.01.003-.035 0-.084-.033-.07-.267.117-.515.296-.79.425-.045.022-.125.024-.112-.025.024-.09.26-.347 1.129-1.292.01-.012.008-.018-.008-.018h-.033Zm-2.384 5.989c.013-.029.02-.038.02-.07 0-.037.012-.095.032-.127l.442-.688c.047-.093.01-.145-.072-.23-.021-.021-.105-.033-.135-.033-.062 0-.056-.05-.055-.111.003-.203.025-.256.186-.578a.225.225 0 0 0 .024-.1c0-.053.052-.105.105-.158a.701.701 0 0 0 .093-.115c.073-.112.118-.163.433-.253.632-.106.632-.106.684-.106.035 0 .07.004.105.01.726.128.827.144.874.08.017-.023.031-.047.051-.067a.216.216 0 0 0 .039-.05.604.604 0 0 0 .068-.224c.018-.177-.133-.325-.305-.28-.155.04-.31.125-.464.117-.03-.002-.052-.029-.052-.06v-.052c.053-.105.053-.105.053-.158l-.263.053c-.048-.142-.052-.156.023-.272a.177.177 0 0 0 .03-.096c0-.034.012-.067.032-.094.067-.089.204-.285.344-.4.089-.074.208-.087.322-.1.11-.012.236-.029.282-.035a.286.286 0 0 1 .038-.003.269.269 0 0 0 .066-.008l.541-.135a.216.216 0 0 0 .1-.057l.053-.052a.037.037 0 0 0 .01-.027c0-.02-.016-.038-.037-.036a.813.813 0 0 0-.144.042.189.189 0 0 1-.06.01c-.129 0-.187 0-.221-.01-.049-.013-.09-.037-.129-.005a.076.076 0 0 1-.01.007c-.017.01-.04.013-.059.022a.33.33 0 0 1-.088.037c-.023.003-.04-.017-.04-.039 0-.008.002-.016.006-.022.103-.138.33-.15.444-.277.016-.017.028-.029.005-.029-.01 0-.04.003-.05.007l-.075.038a.15.15 0 0 0-.028.019.23.23 0 0 1-.042.028c-.026.013-.05-.01-.05-.04v-.032a.02.02 0 0 0-.02-.02c-.015 0-.025-.015-.017-.028.074-.113.303-.322.931-.709.412-.205.7-.583 1.115-.78l.359-.167c.207-.103.82-.41 1.592-.57.02-.005.04.01.04.031a.033.033 0 0 1-.009.022c-.686.78-1.233.968-1.3.989a.03.03 0 0 0-.013.007c-.017.017-.005.047.02.045a.782.782 0 0 0 .414-.163l.022-.021c.015-.016.052-.026.065-.043.018-.024.028-.042.055-.058.096-.055.256-.16.333-.21a.028.028 0 0 1 .044.024c0 .052-.053.105-.053.158 0 .034-.007.069-.021.1-.19.426-.197.431-.4.584l-.316.21.185-.092c.042-.021.077.015.044.048-.03.031-.002.067.034.043.102-.068.204-.167.306-.199.034-.01.068 0 .06.036-.01.047.006.102.042.07.026-.023.062-.06.119-.116l.034-.034a.064.064 0 0 1 .045-.019.063.063 0 0 0 .045-.018l.034-.035.056-.056c.088-.09.118-.223.207-.312l.105-.105.028-.028c.016-.016.04-.022.059-.035.017-.011.027-.03.047-.038.013-.005.023-.007.025.006.005.022.027.07.016.089-.02.034-.03.068-.061.102a.091.091 0 0 0-.014.02c-.05.101-.102.201-.153.252l-.034.034a.064.064 0 0 0-.018.045.063.063 0 0 1-.019.045l-.015.016a.063.063 0 0 0-.019.044.064.064 0 0 1-.018.045l-.034.034a.493.493 0 0 0-.086.12c-.28.529-.874.743-1.177 1.249-.025.048.01.1.063.086.12-.033.318-.119.515-.35l.053-.052c.053-.053.053-.105.105-.158l.053-.053.053-.052.052-.053.053-.052.052-.053.03-.03a.08.08 0 0 0 .023-.056c0-.013.003-.025.009-.037a.368.368 0 0 1 .096-.14l.053-.053h.21c.322-.275.643-.59.964-.91.09-.091.148-.222.238-.314a.724.724 0 0 1 .104-.085.04.04 0 0 1 .063.034v.065c0 .076-.056.125-.086.187-.02.039-.023.086.018.072.067-.023.137-.04.102.021l-.127.224a.187.187 0 0 1-.03.04l-.002.001a.24.24 0 0 0-.05.078.958.958 0 0 1-.225.302.074.074 0 0 0-.021.052.07.07 0 0 1-.013.04c-.086.124-.173.182-.26.29-.03.04-.06.079-.096.114-.147.148-.157.157-.2.244a.129.129 0 0 1-.025.034l-.02.019a.064.064 0 0 0-.018.045.063.063 0 0 1-.018.044l-.508.508c-.21.263-.316.526-.526.79-.406.405-.499.498-.544.592-.029.059-.05.121-.082.178-.045.077-.099.163-.139.236a.204.204 0 0 0-.025.099v.105c0 .049 0 .098-.042.147a.042.042 0 0 0-.01.026c0 .02.016.038.037.038h.015c.062 0 .119.044.102.103-.028.1-.11.194-.137.273-.037.113.067.224-.017.308l-.038.037a.132.132 0 0 0-.025.035l-.01.02c-.02.04-.022.089.017.108.05.025.108.056.108.112v.003s0 .023-.014.039c-.016.016-.034.02-.045.04-.01.021-.042.032-.052.053-.01.02-.043.032-.053.053-.01.02-.042.032-.053.052-.01.02-.042.032-.052.053-.01.02-.043.032-.053.052-.01.021-.042.032-.053.053-.01.02-.045.048-.06.065a.045.045 0 0 1-.014.01c-.015.006-.03.01-.042.021a.49.49 0 0 0-.116.147.086.086 0 0 1-.077.047h-.052l.024-.123c.011-.057-.05-.088-.094-.05-.047.04-.063-.007-.03-.06.015-.023.03-.052.052-.094.027-.053.007-.127-.052-.126-.142 0-.212.221-.322.361-.054.068-.148.06-.222.015a.292.292 0 0 0-.04-.022c-.032-.012-.067.007-.091.031a.13.13 0 0 0-.024.034l-.127.253c-.01.022-.024.042-.007.059.011.01.047.033.06.025.091-.055.144-.146.241-.146.048 0 .078.05.055.093-.126.228-.455.802-.581.802h-.053c-.09 0-.179.038-.268.082a.227.227 0 0 1-.1.023c-.044 0-.051 0-.145-.154-.041-.067-.111-.095-.19-.087-.058.007-.092-.056-.082-.114.005-.031.018-.057.048-.118l.04-.08a.392.392 0 0 0 .022-.053l.02-.063c.019-.061-.055-.093-.116-.114a.128.128 0 0 1-.074-.186c.06-.115.145-.198.194-.298.011-.023-.007-.048-.033-.048-.108 0-.202.093-.282.166l-.216.195c-.297.26-.765.322-1.14.447l-.097.033c-.105.035-.206.106-.317.106H75.51c-.061 0-.122.005-.182.014a3.267 3.267 0 0 1-.277.029c-.289.016-.47-.235-.421-.52a.424.424 0 0 1 .031-.112Zm16.861 18.324c.053 0 .105 0 .105.053 0 .04 0 .05-.088.184-.052.08-.01.15.084.136.031-.005.07.007.084.036.016.032.026.074.04.119.018.065.11.072.14.134.005.013.005.03.01.044.073.283.155.565.219.85.017.075.03.151.03.228a.427.427 0 0 1-.127.328c-.115.106-.256.115-.396.162-.188.062-.06.286.033.386.172.181.464.142.612.337.082.106.14.216.184.34.126.36.41.76.78.9.05.018.096.053.11.104a.565.565 0 0 1 .02.108c.003.043.054.077.097.077.018 0 .018.007.032.018.123.095.33.18.478.207.15.026.308.016.45.076.058.025.125.056.154.116.012.024.012.056.014.085.004.043.027.11-.003.14-.012.013-.103.037-.118.045-.065.032-.12.087-.183.118-.062.03-.144.067-.21.087-.1.028-.164.032-.25.097a.427.427 0 0 1-.2.098c-.185.04-.34.113-.511.19-.179.082-.344.21-.536.256-.115.027-.275.047-.273.203.003.178.106.288.272.31.158.02.283-.03.423-.086.122-.048.181-.115.282-.186.114-.08.238-.12.362-.174.082-.036.182-.08.253-.134.071-.054.111-.125.193-.168.062-.033.091-.083.144-.117.055-.035.103-.01.165.011.114.04.19.128.224.242.044.144-.022.31.006.456.017.09.088.13.164.156.118.04.195.037.303.008a.458.458 0 0 1 .196-.012c.044.015.016.02.044.04.079.052.138.15.193.225.068.093.2.12.257.21.017.028.008.07.016.101.003.012.028.026.032.045.036.153-.002.363-.002.521 0 .176.032.393.002.567a.824.824 0 0 1-.107.274c-.049.056-.182.082-.254.113-.044.019-.113.04-.147.075-.037.039-.037.079-.077.117-.071.066-.171.098-.244.168-.047.046-.075.096-.142.108-.054.01-.095-.004-.149.012-.07.022-.095.033-.175.013-.106-.027-.21-.066-.319-.036-.18.05-.385.197-.523.32-.31.274-.492.662-.81.93-.214.18-.502.23-.782.248-.357.022-.906.03-1.508-.059-.835-.122-1.717-.122-2.464.27-.274.144-.556.346-.86.42a1.303 1.303 0 0 0-.714.455c-.114.14-.216.29-.333.427-.098.115-.22.204-.325.313-.095.098-.154.24-.257.328-.068.059-.21.162-.158.274.037.081.238.033.315.013.24-.062.528-.104.719-.267a7.81 7.81 0 0 0 .474-.442c.162-.164.371-.28.563-.406a2 2 0 0 1 .955-.337c.264-.014.524.003.754.141.178.107.238.285.216.489-.01.082-.041.218-.127.255-.037.015-.07 0-.107.005-.055.01-.106.038-.161.05-.075.018-.153.02-.227.038-.076.018-.14.068-.214.09-.097.031-.132.016-.177.114-.147.316.316.42.535.489.14.044.172.075.133.208-.022.073-.032.15-.052.225-.025.094-.097.168-.11.263-.032.211.032.397.119.583.047.1.043.219.114.307.069.088.153.172.231.248.09.088.202.171.274.275.043.06.06.12.134.156.175.084.393.058.583.057.306 0 .568.212.868.267.131.024.2.07.157.217-.03.107-.199.193-.295.215-.235.054-.61.032-.793.216-.045.046-.061.11-.108.155-.151.14-.392.1-.572.17-.069.026-.123.062-.187.093-.077.037-.3.117-.233.233.025.045.105.035.138.06.045.033.05.09.038.156-.04.244-.308.224-.458.349-.041.034-.076.078-.126.108a.826.826 0 0 1-.113.05c-.096.005-.209-.084-.272-.144-.073-.07-.145-.16-.253-.171-.045-.005-.093.013-.136-.005-.088-.036-.091-.14-.07-.217.048-.17.19-.207.297-.33.068-.077.104-.182.168-.261.102-.128.272-.183.398-.278.148-.112.317-.169.471-.26.084-.05.176-.08.225-.178.025-.05.02-.08.022-.135.003-.092.011-.105-.076-.118-.122-.018-.235.077-.352.042-.122-.036-.03-.168-.122-.226-.06-.038-.136.006-.193.021-.24.062-.474.066-.613.299-.124.206-.326.299-.528.42l-1.244.742-.333.198a.572.572 0 0 1-.293.081c.095 0 .105.112.022.157a.477.477 0 0 1-.233.053c-.525.048-.964.963-1.04 1.132a.57.57 0 0 0-.054.316c.075.634.04.868-.59.973-.368.053-.684.263-1 .316-.631.105-.947.158-1.105.895-.084.544-.1.655-.37.943-.125.135-.301.094-.337-.086-.034-.169-.265-.119-.23.05.014.067.043.148.095.251.072.145.12.29.142.417a.528.528 0 0 1-.05.31 6.265 6.265 0 0 1-.087.181c-.185.369-.374.241-.374-.172 0-.21-.263-.368-.157-.631.151-.405.157-.421.064-.561a.04.04 0 0 0-.033-.018.04.04 0 0 0-.04.03c-.052.182-.231.676-.242 1.039-.008.232.054.489-.027.706l-.024.065c-.048.133-.03.29.084.375l.02.015c.144.1.248.488.253.664.007.255-.09.389-.055.643.033.235.116.483-.106.673-.187.16-.415.226-.642.3-.45.146-.773.541-1.243.594l-.01.001c-.183.03-.224.167-.268.308-.008.025-.43.317-.457.321l-.014.004a.76.76 0 0 0-.123.091c-.43.39-1.014 1.106-1.263 1.63-.214.451-.42.901-.242 1.435.894 2.631.894 2.631.894 2.736-.041 1.001-1.088 1.086-1.362.123a48.345 48.345 0 0 1-.414-1.627c-.113-.467-.347-.872-.736-1.156-.92-.67-2.711-1.8-3.452-1.31-.1.067-.211.128-.328.097a2.716 2.716 0 0 1-.1-.03c-.082-.026-.19-.007-.228.071-.015.031-.002.06.013.091l.046.091c.169.339-.105.528-.456.383-.339-.141-.578-.242-.75-.319-.365-.165-.712-.438-1.104-.519a1.45 1.45 0 0 0-.628-.009c-.423.079-.723.415-.963.773-.113.167-.198.164-.4.136a.111.111 0 0 1-.057-.03c-.05-.052-.16-.09-.217-.046-.229.175-.267.496-.474 2.646a.428.428 0 0 1-.206.321.395.395 0 0 0-.199.312c-.04.683-.067 2.908 1.122 4.581.199.319.882.879 1.2 1.132.111.088.231.167.37.199.44.101.882-.087 1.323-.052.124.01.25-.03.283-.151a.497.497 0 0 1 .247-.292c.137-.072.185-.227.26-.678.16-1.077.894-1.156 1.698-.926.478.138.752.626.677 1.119-.075.491-.195 1.078-.372 1.394-.044.08-.144.078-.195.002-.06-.092-.196-.064-.21.045-.062.543-.18 1.742-.019 1.944.948 1.158 3.737-.421 3.684 1.474l-.01.539c-.008.429-.017.859-.02 1.288-.001.133.003.267 0 .401-.006.212-.086.404.093.578.133.13.255.258.398.378.073.062.152.117.23.176.047.036.093.074.142.108.075.053.12.114.188.173.092.08.212.166.313.222.081.044.174.092.247.155.064.055.085.093.177.068.086-.023.167-.042.252-.065.16-.044.316-.043.493-.043.057 0 .13.013.185.002.042-.008.075-.034.117-.043.036-.008.075.002.114-.006.056-.012.099-.029.159-.031.173-.004.43-.032.573.088.089.074.063.325-.003.408-.12.151-.304.147-.456.201-.072.026-.144.036-.194.098-.053.064-.039.128-.039.213 0 .114.055.392-.1.425-.048.01-.101-.033-.151-.038-.038-.005-.078.006-.117.002a.63.63 0 0 1-.233-.098c-.033-.02-.055-.05-.085-.069-.04-.025-.078-.03-.124-.049a1.407 1.407 0 0 1-.372-.244c-.148-.133-.34-.22-.487-.357-.092-.086-.183-.139-.288-.208-.053-.036-.116-.046-.172-.077-.072-.041-.117-.098-.193-.13a1.267 1.267 0 0 1-.522-.38c-.088-.109-.18-.207-.254-.326-.048-.076-.084-.168-.146-.235-.032-.034-.071-.08-.126-.079-.043.001-.074.042-.117.045-.053.004-.131-.034-.184-.05-.094-.029-.147-.134-.21-.204-.06-.068-.137-.118-.196-.19-.08-.097-.145-.21-.215-.316-.063-.096-.094-.2-.142-.303a7.758 7.758 0 0 1-.205-.493c-.04-.104-.032-.21-.061-.315-.043-.156-.202-.257-.33-.339-.466-.301-.974-.545-1.464-.804a.32.32 0 0 1-.078-.058.315.315 0 0 0-.038-.033c-.576-.408-1.302-.517-1.822-1.037-1.497-1.498-1.843-1.844-2.354-1.66-.352.127-.731.143-1.066-.024l-.106-.053c-1.368-.789-1.368-.789-1.841-1.158l-.053-.052a4.885 4.885 0 0 0-.899-.742c-.101-.068-.195-.146-.293-.219a1.814 1.814 0 0 0-.164-.109.575.575 0 0 1-.118-.088.634.634 0 0 0-.115-.093l-.12-.069c-.203-.12-.352-.312-.506-.491-.351-.408-.8-.748-.923-1.296a.943.943 0 0 1-.02-.209c0-.139.05-.277.03-.415-.046-.303-.429-1.091-2.035-4.381-.06-.122-.214-.16-.31-.256-.158-.158-.105-.263-.105-.473v-.053c0-.032.004-.064.013-.095.028-.103.041-.273-.066-.273-.109 0-.186-.104-.238-.2-.168-.311-.559-1.05-.762-1.537-.467-1.141-.371-2.436-1.175-3.481a.116.116 0 0 0-.093-.045h-.087a.159.159 0 0 1-.103-.037.186.186 0 0 1-.02-.023.476.476 0 0 0-.013-.024c-.081-.137-.25-.048-.243.111.073 2.019 1.19 3.743 1.703 5.596.021.075.049.148.084.218.876 2.217.894 2.262.845 2.758a.035.035 0 0 1-.035.032.037.037 0 0 1-.031-.019c-.728-1.351-.834-1.457-1.2-1.981-.106-.158-.158-.316-.106-.79v-.02a.392.392 0 0 0-.034-.162c-.09-.197-.33-.723-.508-1.038-.025-.045-.123-.035-.151.008-.02.029-.06.026-.078-.003-.213-.355-.268-.445-.348-.533a.619.619 0 0 1-.132-.217c-.095-.288-.106-.352-.055-.47a.153.153 0 0 1 .143-.091c.066 0 .128-.04.148-.104.256-.794-.188-1.385-.52-1.994-.285-.522-.449-1.131-.59-1.708a6.247 6.247 0 0 1-.137-.667v-.053a.827.827 0 0 0-.027-.214c-.292-1.092-1.175-1.864-1.39-2.971a.308.308 0 0 1-.005-.058v-.017a.245.245 0 0 0-.026-.111.252.252 0 0 1-.026-.112v-.01a.291.291 0 0 0-.009-.071l-.149-.597c-.153-.612-.195-.78-.186-.885.007-.078.019-.099.033-.176.017-.098.04-.253.023-.351-.082-.5-.094-.688-.238-2.903a.982.982 0 0 0-.05-.308c-.056-.168-.056-.176-.056-.218 0-.158 0-.21.21-.527.053-.105.106-.105.211-.684.04-.259.132-.627.018-.882-.051-.116-.175-.187-.177-.322 0-.092.059-.173.071-.264.012-.087.019-.145.047-.227.083-.237.123-.462.259-.683.151-.248.419-.467.455-.756.01-.08-.01-.153.011-.234.02-.078.043-.1.046-.187.006-.126-.026-.27-.004-.393.015-.084.052-.147.061-.233.005-.047.002-.071.013-.116.018-.068.041-.102.047-.175.005-.067-.01-.117.009-.186.021-.081.087-.137.103-.223.01-.06.002-.113.016-.174.029-.124.093-.24.162-.347.08-.124.118-.19.234-.275.08-.057.163-.163.22-.248.078-.118.05-.223.082-.349.028-.112.046-.169.045-.29 0-.112-.026-.256.027-.351.028-.05.114-.118.159-.157.048-.041.196-.19.27-.124.038.033-.001.125.006.166.01.065.053.11.064.175.015.087-.05.23.068.28.07.029.158-.04.192-.104.043-.079.047-.202.073-.293.036-.126.05-.277.071-.41.046-.287.153-.521.103-.82-.023-.144-.023-.283-.043-.425-.016-.116-.062-.198-.06-.32.003-.226.029-.475.001-.7-.01-.082-.024-.138-.102-.188-.083-.054-.165-.024-.25-.07-.182-.097-.115-.382-.115-.554v-1.972c0-.23-.028-.468.028-.692.037-.15.116-.282.18-.421.19-.412.228-.874.382-1.3a.3.3 0 0 0 .018-.102c-.047-.376.409-.542.47-.873.01-.05-.057-.086-.102-.06a.104.104 0 0 1-.102 0c-.015-.01-.028-.017-.038-.027-.021-.02-.006-.052.016-.07.089-.075.202-.127.293-.23.026-.031.015-.088-.007-.122-.025-.04-.061-.072-.05-.118.012-.046.02-.107-.002-.15-.015-.029-.028-.058-.057-.087a.087.087 0 0 1-.01-.114c.086-.121.139-.195.17-.243.04-.06-.009-.116-.08-.116-.019 0-.023-.008-.01-.023l.153-.178c.095-.11.169-.238.212-.377.038-.121.05-.186.08-.37a.632.632 0 0 0 .01-.105c0-.055 0-.111-.009-.167-.014-.101-.05-.205-.012-.3.065-.159.21-.305.263-.466.021-.063-.01-.164.02-.224l.03-.058.044-.097c.042-.1.143-.342.25-.622a.422.422 0 0 0 .003-.236c-.035-.171.044-.313.1-.457.029-.076-.068-.145-.147-.126-.058.014-.107-.039-.085-.095.054-.14.135-.282.164-.423.01-.053-.034-.097-.088-.097a.098.098 0 0 0-.087.055c-.172.344-.19.373-.315.542-.017.022-.042.036-.068.026-.056-.022-.095-.104-.075-.161.32-.916.343-.956.723-1.48a.11.11 0 0 0 .024-.073c-.004-.071-.093-.078-.144-.027l-.066.065c-.132.13-.307 0-.247-.175a3.12 3.12 0 0 1 .116-.295.345.345 0 0 1 .07-.099l.132-.133c.022-.021.03-.043.044-.07.029-.059-.056-.095-.12-.086a.315.315 0 0 1-.086.001c-.076-.009-.119-.085-.119-.162V70.74c0-.123.032-.245.046-.343.006-.043-.029-.078-.072-.078-.044 0-.077-.036-.082-.08-.007-.055-.03-.122-.102-.341l.105-.21-.053-.159c.042-.21.186-.388.214-.586.013-.092.043-.187.115-.246.12-.099.147-.132.177-.213.01-.03-.007-.061-.037-.057-.04.005-.1-.02-.1-.06v-.008a.04.04 0 0 0-.04-.04h-.019c-.021 0-.033-.025-.022-.044.018-.03-.011-.056-.034-.03a4.939 4.939 0 0 0-.258.341c-.045.043-.124.086-.178.13-.017.012-.017.036-.002.05a.037.037 0 0 1 0 .053 1.908 1.908 0 0 1-.273.237.173.173 0 0 0-.07.139c0 .045-.016.09-.05.12a.259.259 0 0 1-.07.048c-.022.01-.047.019-.066.034-.029.022-.064.045-.097.067-.033.022-.105 0-.121-.035-.013-.027-.046-.048-.074-.038-.104.036-.142.061-.4.233a.201.201 0 0 0-.03.024l-.027.028a.063.063 0 0 1-.027.015c-.177.05-.316.171-.45.27-.008.005-.015-.004-.009-.01l.002-.002.03-.061a.436.436 0 0 0 .033-.089l.022-.087a.29.29 0 0 1 .076-.134.305.305 0 0 1 .113-.07c.088-.032.114-.052.216-.154.023-.022.037-.05.034-.08-.006-.068-.01-.152.038-.198.917-.88 1.12-1.072 1.238-1.14.044-.024.096.013.106.062.015.068.133.098.165.035a.365.365 0 0 0 .033-.184c0-.036.014-.071.042-.095.136-.116.302-.177.439-.327.02-.022.007-.054-.022-.049-.04.008-.083-.05-.052-.078l.183-.167c.054-.05.014-.088-.044-.042-.49.389-1.581 1.258-1.935 1.57a6.107 6.107 0 0 1-.186.13l-.005.002a5.774 5.774 0 0 1-.135.133c-.13.12-.298.194-.425.318l-1.332 1.296c-.275.268-.577.762-.901.968a.488.488 0 0 1-.15.06.21.21 0 0 0-.096.054l-.004.004a.142.142 0 0 0-.015.018c-.209.287-.482.446-.716.657-.025.022-.077-.014-.062-.044.013-.026-.016-.052-.04-.034-.094.07-.175.14-.273.212-.025.018-.052 0-.038-.028.015-.03-.012-.046-.036-.021l-.242.242c-.022.022-.047.008-.033-.02a.772.772 0 0 0 .009-.018c.01-.022-.011-.033-.028-.016a.025.025 0 0 1-.017.008c-.033.004-.082-.028-.066-.057.079-.149.106-.164.216-.2a.08.08 0 0 0 .03-.02l.04-.04c.089-.088.215-.177.315-.266a.19.19 0 0 1 .126-.049.179.179 0 0 0 .138-.067c.315-.39.508-.503.655-.598a.327.327 0 0 0 .053-.043.446.446 0 0 1 .061-.05c.372-.262 1.388-1.386 1.768-1.813.058-.065.014-.143-.07-.125a.575.575 0 0 1-.05.009c-.027.003-.048-.018-.038-.043.017-.04-.011-.059-.043-.028a3.27 3.27 0 0 1-.038.036c-.055.051-.122-.01-.086-.076.026-.048.05-.096.091-.177a.208.208 0 0 0 .016-.052c.011-.056.049-.138.049-.183 0 0-.022-.024-.032-.01a.423.423 0 0 1-.168.145c-.077.03-.121-.077-.063-.135l.05-.05.005-.006c.047-.054.74-.853 1.093-1.33.028-.037-.01-.068-.043-.035l-.053.053-.052.052-.076.076c-.019.019-.03.03-.03.004 0-.008.001-.03.003-.038.215-.94 1.157-1.413 1.576-2.147.097-.145.238-.201.342-.291a.067.067 0 0 0 .025-.06c-.007-.048-.023-.098.012-.13.736-.692 1.8-.96 2.516-1.676l.052-.053.053-.053.053-.052.052-.053.053-.053.052-.052.053-.053.105-.105c.26-.209.521-.417.73-.676a.03.03 0 0 0 .007-.019.03.03 0 0 0-.04-.028c-.076.03-.153.07-.23.108-.05.024-.11-.05-.084-.099a1.53 1.53 0 0 0 .013-.025c.012-.023.012-.05-.014-.05-.04.001-.107-.078-.081-.108l.162-.195c.007-.008.021-.013.01-.013-.032 0-.067-.042-.046-.066.083-.092.261-.28.731-.671 1.037-.933 1.053-.947 1.405-1.149a.143.143 0 0 0 .029-.022.136.136 0 0 1 .096-.04h.007a.164.164 0 0 0 .079-.02 3.01 3.01 0 0 1 .523-.221c.047-.015.053-.003.019.031-.612.561-.631.578-.68.723a.092.092 0 0 0-.004.029.11.11 0 0 1-.025.066.469.469 0 0 0-.074.142c-.006.021.012.04.034.04a.042.042 0 0 0 .022-.006c.33-.206.395-.248.435-.31a.108.108 0 0 1 .089-.053h.014c.046 0 .078.038.057.08-.02.04.012.078.058.078h.028c.03 0 .057-.012.079-.032a.46.46 0 0 1 .056-.047c.04-.027.088-.045.121-.078.03-.03.043-.06.058-.09.014-.027-.004-.08-.031-.095-.028-.014-.041-.063-.019-.084.133-.124.291-.249.422-.373.022-.02.056-.037.03-.05-.026-.013-.073-.066-.054-.088.291-.328.623-.575.916-.858a.425.425 0 0 1 .105-.076.41.41 0 0 0 .087-.058c1.154-1.01 1.226-1.07 1.842-1.424.07-.04.129.012.205.035.013.004.025.001.038-.002.651-.156 1.16-.597 1.758-.862a.233.233 0 0 1 .113.022c-.01-.01.53-.348.619-.38.105-.037.202-.03.31-.048a.654.654 0 0 0 .276-.132c.258-.184.591-.185.887-.282.122-.04.252-.072.378-.1.047-.01.16-.04.21-.02.088.038.045.28-.012.342-.032.035-.064.051-.102.075-.132.083-.26.173-.393.256-.172.108-.334.23-.382.434-.031.134-.056.256-.105.389-.055.15-.092.284-.18.418-.072.11-.144.197-.175.328-.032.13-.068.261-.103.392-.04.144-.128.285-.14.434-.006.062.007.127.003.19a.803.803 0 0 1-.076.257c-.135.312-.335.61-.527.888-.09.131-.173.226-.22.378-.05.16-.11.315-.11.482 0 .112.003.127.098.17.066.029.105.04.174.024.084-.02.17-.054.252-.083.133-.047.205-.112.324-.178a2.52 2.52 0 0 1 .482-.196c.228-.072.467-.194.71-.196.07 0 .146.017.214-.003.057-.017.073-.05.12-.073.123-.061.268-.088.374-.176.117-.097.42-.386.586-.251.038.03.107.109.109.156.002.08-.098.142.03.157.092.01.248-.114.326-.165.088-.057.174-.12.255-.187.064-.053.136-.113.208-.154.121-.07.33.046.325.186-.002.075-.017.144-.05.182-.057.064-.203.117-.278.161a3.883 3.883 0 0 0-.366.238c-.098.074-.231.193-.291.299-.038.067-.136.209-.118.294.034.16.325-.111.385-.151.097-.065.19-.14.289-.202.038-.024.133-.093.184-.078.129.038-.092.346-.134.39-.098.103-.24.141-.34.24-.096.094-.207.175-.296.276-.103.117-.105.244.05.232a.482.482 0 0 0 .157-.034c.08-.04.148-.122.222-.172.097-.066.203-.127.313-.167.1-.036.129-.051.143.05.011.08-.002.17 0 .25.003.196.151.317.185.508.017.094.002.187.007.281.005.073.026.141.038.212a.172.172 0 0 0 .178.144c.056 0 .086-.043.153-.038.326.023.3.52.184.745-.04.077-.104.138-.157.204-.068.084-.118.181-.198.254-.137.124-.312.192-.428.337-.14.176-.276.51 0 .643.239.114.555-.025.783-.083.123-.03.266-.004.387.013.062.009.127-.002.15.055.015.042-.004.137-.004.18.001.124 0 .204-.034.31-.108.35-.354.646-.452 1.003-.03.11-.043.195.1.177a.389.389 0 0 0 .232-.133c.077-.105.102-.296.124-.423.042-.254.093-.436.223-.655.08-.136.188-.243.31-.341.108-.087.228-.123.35-.183.112-.054.232-.077.339-.136.1-.055.203-.126.283-.213.14-.155-.115-.125-.218-.125-.027 0-.06.002-.095.005-.214.017-.475-.204-.292-.316a.838.838 0 0 1 .415-.113.943.943 0 0 0 .284-.059c.056-.022.093-.053.154-.06.084-.01.247-.029.288.062.032.071.013.297-.005.366-.031.124-.09.246-.128.367-.031.106-.068.212-.105.319-.015.046-.034.065-.03.124.009.12.117.206.236.21.06.002.104.02.133.136.053.205.16.386.37.39h.038c.048 0 .11-.012.154.007.062.025.098.104.155.14.154.101.4.143.504-.03.07-.117.136-.349.31-.35.119-.002.115.08.116.175 0 .114.058.183.165.108.154-.107.147-.267.145-.436-.003-.176.125-.406.31-.458.036-.01.095-.031.124-.038.04-.008.09-.023.13-.007.103.043.038.18.053.27.013.07.047.12.043.196-.003.053-.028.084-.037.134-.018.094.063.125.075.212.03.22-.235.263-.358.377-.096.09-.218.217-.26.344a.868.868 0 0 0-.004.288c.01.087.001.055.078.087.052.02.077.036.136.026.073-.012.215-.039.263-.103.038-.05.016-.067.025-.128.008-.047.04-.076.043-.132.007-.137.005-.252.075-.372.052-.09.137-.102.21-.158.068-.052.08-.112.1-.19.028-.098.019-.15.136-.154.041-.002.099-.011.138-.002.053.013.049.04.105.033.002 0 .033-.03.046-.033.024-.006.055.008.08.004a.505.505 0 0 0 .132-.045c.071-.04.149-.106.215-.16.162-.13.24-.3.339-.466.043-.074.12-.14.09-.243-.037-.125-.17-.009-.266-.065-.106-.061-.026-.168.05-.206.103-.05.194-.107.293-.173a.823.823 0 0 0 .231-.234c.059-.09.135-.147.175-.25.01-.028.06-.108.061-.134.005-.065-.087-.152-.103-.222a2.212 2.212 0 0 0-.068-.234c-.062-.178-.038-.396.017-.573.084-.276.269-.487.468-.687.203-.203.21-.21.353-.496.01-.02.011-.024.025-.042.036-.042.064-.115.103-.154.297-.295 1.364-1.355 1.667-1.565a.036.036 0 0 1 .022-.006c.022 0 .04.018.038.04a.956.956 0 0 1-.059.227c-.018.048.015.09.063.075.048-.016.08.025.059.07-.095.204-.32.685-.482 1.009v.368l-.076.153a.309.309 0 0 0-.03.123c-.016.313-.137.589-.195.862a.251.251 0 0 1-.067.125l-.014.014a.139.139 0 0 1-.088.042c-.117.012-.32.193-.399.28-.054.06-.133.14-.246.253-.027.028-.037.083-.016.115.021.032.048.034.085.045l.026.008c.076.025.153.076.178.152.04.118.01.193-.133.376-.01.013-.03.031-.046.031-.008 0-.033.005-.035.013-.035.105-.073.217-.11.332-.133.411.171.553.42.2.09-.128.184-.25.292-.359.047-.047.117-.042.148.017.021.04.036.088.025.131-.322 1.242-.351 1.343-.515 1.432a.045.045 0 0 1-.058-.012c-.011-.014-.04-.003-.045.014a.388.388 0 0 1-.034.085c-.01.019-.108.177-.117.196l-.003.005c-.088.264-.213.528-.313.792-.035.094.008.19.039.285.005.015.008.03.01.048.002.02-.009.02.006.035.02.02.064.049.091.05a.448.448 0 0 1 .083.01c.056.012.12.024.17-.001a.133.133 0 0 0 .035-.025l.038-.038c.342-.391.594-.783.882-1.217.041-.063.084-.137.118-.204.144-.23.209-.335.29-.399.153-.12.273-.26.36-.434a.306.306 0 0 1 .028-.047c.062-.084.216-.12.216-.225 0-.198 0-.21.044-.56a.366.366 0 0 1 .054-.117.106.106 0 0 0 .01-.01c.314-.575.42-.47.997.214.033.032.046.08.035.124-.072.291-.082.346-.055.442.01.04.044.065.085.065.067 0 .117.07.091.132a6.75 6.75 0 0 0-.192.484c-.023.077-.037.157-.078.227-.08.14-.186.31-.322.362-.059.022-.112.02-.17.057-.105.066-.182.164-.273.246-.226.202-.17.601-.193.877-.021.254-.122.499-.203.74-.062.186-.164.38-.311.514-.229.207-.472.34-.797.284-.088-.014-.105-.125-.178-.118-.034.004-.095.085-.104.114-.039.126.048.285-.026.4-.07.108-.206.064-.292 0-.07-.053-.049-.082-.143-.07-.082.01-.158.044-.235.002-.104-.056-.07-.2-.115-.29-.043-.088-.05-.113-.155-.119a.528.528 0 0 0-.233.047c-.116.054-.207.265-.233.38-.047.208-.13.38-.224.574-.064.13-.157.23-.23.355-.067.116-.151.246-.3.236-.085-.006-.232-.096-.301-.147a.748.748 0 0 1-.215-.251c-.044-.11.046-.284-.025-.38-.034-.048-.124-.053-.178-.04-.015.004-.038.031-.045.033-.043.008-.1-.005-.138.016-.185.097-.281.457-.211.621a.7.7 0 0 0 .193.233c.08.072.181.14.277.189.074.039.14.048.209.102.083.065.2.134.223.24.026.119.011.317-.05.418-.152.258-.487.453-.728.62a.722.722 0 0 1-.192.107c-.053.015-.106.026-.155.058-.078.049-.175.135-.27.156-.053.013-.14 0-.195-.002-.062 0-.131-.038-.185-.032-.042.005-.088.067-.123.09-.086.057-.111.05-.118.155a.307.307 0 0 1-.27.292c-.183.024-.301-.03-.428-.147-.088-.082-.135-.18-.202-.278-.04-.058-.083-.163-.136-.208-.042-.034-.114-.074-.164-.105-.1-.063-.467-.09-.361.117.043.086.114.156.165.241.057.096.118.178.187.265.049.06.074.128.114.193.048.078.119.143.167.222.04.065.13.157.15.226.01.031 0 .061.002.093.004.077.054.138.053.215a.425.425 0 0 1-.035.134.451.451 0 0 1-.176.218c-.447.278-1.101.096-1.35.56-.163.303-.309.619-.534.876a.887.887 0 0 1-.227.205 1.023 1.023 0 0 1-.344.116c-.074.008-.125-.028-.195-.038-.087-.011-.161.029-.231.076-.16.108-.136.261-.136.434 0 .257-.08.441-.194.67-.132.267-.211.545-.37.799-.128.207-.294.39-.403.606-.028.054-.068.102-.09.159-.006.013-.023.077-.027.085-.05.108-.155.202-.188.315a.531.531 0 0 0 .03.31c.072.186.125.342.152.543l.17 1.26c.06.45.492.662.93.784.372.103.625.513 1.338 1.667.579.947 2 .736 2.631 1.631.157.21.21.314-.099 3.514a.14.14 0 0 1-.055.104.486.486 0 0 1-.099.051c-.033.013-.062.036-.064.072-.004.058.048.153.106.158.06.004.121.013.175.032a.116.116 0 0 1 .057.05c.284.462.367.599.39.75.022.137.061.277.178.35a.727.727 0 0 0 .042.025c.094.052.205.01.259-.082.058-.1.1-.212.144-.31.032-.073.123-.083.179-.028l.019.019a.08.08 0 0 1 .02.075c-.01.047-.018.092-.024.135-.009.063.04.07.053.007.01-.05.081-.06.119-.026l.01.009c.042.036.117 0 .12-.055.055-1.157.718-2.273.364-3.534a2.445 2.445 0 0 0-.015-.046c-.064-.176-.035-.43.12-.533.782-.39 1.11-1.37 1.994-1.594a.356.356 0 0 0 .257-.254c.014-.063-.013-.125-.058-.17-.116-.117-.14-.15-.17-.234a.644.644 0 0 1-.033-.13c-.079-.557.116-1.116.116-1.723 0-.526-.579-.79-.579-1.316 0-.454.532-.52.669-.897.01-.029.053-.055.08-.072.032-.019.062-.01.093.012l.083.057c.043.03.105.028.142-.009a.125.125 0 0 0 .031-.091c-.002-.16.16-.297.171-.487.004-.053-.015-.094-.068-.09-.103.008-.22-.068-.178-.162.124-.272.134-.38.135-.657 0-.05.017-.095.057-.123.084-.06.086-.169.046-.264-.11-.256.15-.486.33-.728.18-.242-.073-.485-.182-.766a.51.51 0 0 1-.032-.22c.041-.622.841-.608 1.407-.348.1.046.206.083.32.109.313.052.574-.308.885-.112a.286.286 0 0 1 .02.014c.064.047.436.34.506.754.012.073.116.112.116.186 0 .045 0 .07.012.106.056.159-.004.342.032.506.01.047.026.107.049.186.007.026.05.044.076.044.033 0 .043.027.054.058.012.033.031.07.053.103.023.034.058.049.097.06.082.024.168.122.113.187a.208.208 0 0 1-.012.013c.126-.126.29-.11.448-.024.14.077.16.077.236.077.013 0-.033 1.071-.054 1.17-.014.06-.04.097-.071.148-.085.138-.105.306-.114.465-.004.075.022.176.004.25-.015.057-.04.08-.04.15-.004.293-.23.444-.345.683-.037.077-.083.252-.025.327.037.049.083.038.137.037.087-.001.132.02.213.036.115.022.234.021.349.045.14.03.228.189.312.288.088.104.264.235.404.254.164.024.32-.096.408-.215.088-.12.108-.243.174-.37.076-.148.215-.021.35-.037.332-.037.308-.577.308-.815 0-.12-.026-.27.008-.386.02-.066.076-.119.108-.177.045-.082.083-.19.145-.26a.362.362 0 0 1 .165-.109.552.552 0 0 1 .174-.016c.062.023.11.183.127.237.034.118.046.24.095.353.132.305.349.58.427.909.025.104.012.212.036.317.01.053.132.503.177.503Zm18.539-16.995c-.045.138-.127.263-.152.405a1.324 1.324 0 0 0-.017.19c-.009.29-.036.546-.3.669-.129.06-.339.146-.451.233l-.895.701c-.096.075-.247.132-.363.097-.463-.137-.648-.171-.582.307.077.567.159 1.128.062 1.71-.092.414-.104.466-.772 1.35-.196.26-.489.289-.681.026a.382.382 0 0 0-.09-.092c-.023-.015-.049-.022-.075-.013a.275.275 0 0 0-.158.165 4.806 4.806 0 0 0-.081.286c-.058.229-.369.304-.527.48-.058.064-.038.106-.033.193.005.11.015.219.018.322.006.18-.114.33-.294.34-.231.012-.338.254-.191.432.054.066.115.129.169.193.106.126.119.311.007.433a.656.656 0 0 0-.155.597c.069.335.06.589-.086 1.058-.217.695.054 1.448.054 2.177 0 .79-.371 1.58-.416 2.37a.405.405 0 0 1-.1.256c-.076.087-.185.186-.297.16-.104-.026-.193-.086-.284-.137-.102-.056-.226-.032-.325.03-.097.06-.208.018-.27-.077a2.451 2.451 0 0 1-.242-.565c-.127-.401-.438-.685-.855-.628-.177.024-.353.026-.53-.066a.094.094 0 0 1-.049-.084.101.101 0 0 0-.102-.102c-.118 0-.186 0-.233-.006-.093-.01-.153-.097-.182-.186-.391-1.198-1.231-2.17-1.535-3.386-.152-.606.23-1.067.26-1.662a.132.132 0 0 0-.06-.116c-.055-.037-.13-.03-.17.023-.053.07-.095.146-.138.221-.132.233-.388.162-.462-.094-.265-.912-.774-2.965-.693-4.582v-.158c0-.175.109-.313.176-.475.02-.052-.011-.11-.054-.144-.037-.03-.045-.094-.02-.134.014-.021.028-.036.056-.036.26 0 .521.155.833.106a.115.115 0 0 1 .017-.001h.007a.09.09 0 0 0 .064-.026.125.125 0 0 0 .03-.064c.013-.055.038-.131-.004-.173l-.026-.026a.093.093 0 0 1-.027-.065c0-.04-.025-.076-.065-.083-.066-.012-.131-.01-.197-.01-.133 0-.238-.11-.215-.24.063-.341.44-.548.516-.88a.238.238 0 0 1 .124-.158.15.15 0 0 1 .034-.01c.009-.002.021.005.028.011.027.023.128-.007.134-.042a.822.822 0 0 0 .01-.12.06.06 0 0 0-.062-.061h-.05c-.03 0-.06-.011-.075-.036a.256.256 0 0 1-.033-.231c.173-.449.205-.654.01-.996-.159-.316-.474-.105-.685-.263-.128-.096-.198-.231-.256-.358-.067-.144-.204-.2-.33-.298-.193-.151.059-.477.3-.437.08.013.165.04.254.082.43.207.876.256.678-.177a5.527 5.527 0 0 0-.364-.648c-.044-.07-.122-.093-.193-.136a.164.164 0 0 1-.054-.064 87.21 87.21 0 0 0-.304-.603c-.106-.208-.276-.178-.346.044-.032.102-.066.23-.101.39a.211.211 0 0 1-.116.134c-.038.018-.076-.002-.1-.037-.055-.083-.093-.14-.123-.182a.682.682 0 0 1-.14-.426c.25-3.938.38-5.993-.652-7.68a.161.161 0 0 0-.138-.077c-.043 0-.085.017-.108.054a.487.487 0 0 0-.005.008c-.027.042-.08.023-.106-.019-.016-.025-.028-.043-.059-.043-.037 0-.048 0-.139.105-.06.07-.213.036-.253-.047-.017-.034-.053-.058-.088-.042l-.002.001c-.052.025-.097.082-.097.14v.189a.064.064 0 0 1-.023.042c-.038.03-.14.025-.17-.013-.281-.354-.084-.618.16-.868.082-.084.107-.211.047-.311l-.003-.005c-.035-.059-.055-.124-.027-.186.017-.037.006-.076-.008-.114-.063-.182 0-.387.34-.495.065-.02.124.02.174.065.023.02.05.006.078-.008.052-.026.091-.043.229-.102.118-.051.178-.183.216-.306.027-.09.074-.168.108-.25.03-.071-.04-.113-.095-.058a.677.677 0 0 1-.094.083c-.016.011-.037-.001-.037-.021 0-.029-.044-.04-.06-.018l-.076.103c-.03.041-.106.033-.106-.017 0-.063.032-.13.117-.301.012-.023 0-.06-.015-.083-.026-.04-.036-.115-.01-.155.43-.643.974-1.209 1.45-1.806.04-.05.06-.04.016.005.104-.105.105-.106.47-.678a.071.071 0 0 1 .008-.011l.006-.006a.022.022 0 0 1 .008-.005c.025-.01.05-.019.086-.037h-.052a.06.06 0 0 0-.043.017c-.036.031-.081.054-.115.088.022-.023.044.008.022.03l-.022.023c-.006.005-.08.078-.164.131-.009.006-.016-.004-.009-.011a.678.678 0 0 1 .012-.012c.001-.001 0-.003-.001-.003h-.001c-.025.024-.05.046-.074.067-.023.02-.04-.001-.019-.022l.044-.044c-.21.157-.262.21-.314.262h.105c-.05.05-.1.1-.15.196a.109.109 0 0 1-.02.026l-.04.041-.055.055c-.02.019-.043.01-.018.001.007-.003.023-.006.028-.012l.044-.044c.047-.047.018-.07-.03-.023l-.022.023h-.053l-.21.158c.052-.052.105-.052.157-.105l-.146.147c-.007.007-.02.01-.01.01.02 0 .051.017.051.038v.002a.038.038 0 0 1-.008.024c-.133.17-.335.272-.489.423-.057.056-.078.141-.134.198l-.053.053-.158.157-.052.053-.027.026a.015.015 0 0 1-.026-.01.015.015 0 0 0-.016-.016c-.03 0-.039.004-.066.03a.083.083 0 0 0-.027.041c-.01.03-.057.052-.074.077-.067.1-.192.22-.238.22-.085 0-.101.069-.16.095-.026.012-.05-.013-.05-.042 0 0-.027-.055-.049-.036-.038.034-.105.135-.307.438a.074.074 0 0 0-.013.041c0 .02-.008.039-.022.052a1.725 1.725 0 0 0-.203.23c-.028.041-.056.082-.09.117l-.03.03a.081.081 0 0 1-.057.023.081.081 0 0 0-.036.008c-.06.03-.08.041-.103.06-.025.023-.038.018-.038-.016v-.052h-.158c0-.053.027-.092.053-.132.044-.066-.005-.101-.065-.05-.056.046-.136.12-.25.234-.053.053-.106.106-.106.158.21-.105.21-.105.263-.105h.053c-.035.034-.07.069-.103.118-.028.038-.016.073.026.052a.215.215 0 0 0 .031-.02l.038-.037a.026.026 0 0 1 .018-.008c.02 0 .032.02.022.037a1.053 1.053 0 0 1-.147.18.587.587 0 0 0-.159.178c-.024.045.016.064.06.037l.004-.002c.026-.014.052.015.052.044 0 .08-.069.146-.126.202-.049.047-.109.09-.17.147a.174.174 0 0 0-.033.044.387.387 0 0 1-.151.16c-.021.013-.046-.003-.046-.027 0-.067-.002-.095-.052-.05-.048.044-.126.122-.264.26l-.053.053c-.052.052-.053.053-.252.103a.093.093 0 0 1-.022.003h-.042l.21-.252v-.159c0-.007.002-.014.005-.02l.006-.01c.05-.088 0-.123-.066-.046a3.012 3.012 0 0 1-.118.133.208.208 0 0 1-.09.038l.15-.248a.136.136 0 0 1 .02-.027l.036-.035c.003-.004.005-.001.005-.006 0-.017-.02-.032-.032-.02-.085.084-.13.129-.16.152-.027.023-.051-.012-.035-.044-.038.056-.089.094-.188.071-.004 0-.007.002-.006-.001.014-.027-.004-.047-.016-.019-.047.103-.044.243-.133.304-.054.038-.114-.023-.114-.089v-.038c0-.05 0-.053.089-.186.01-.015.025-.025.007-.025a.134.134 0 0 0-.06.016c-.038.03-.075.04-.113.066-.011.008-.033.023-.047.023-.008 0-.034-.006-.034-.015v-.022c0-.01.004-.019.01-.026.033-.037.043-.074.067-.111.009-.014.01-.036-.007-.036a.065.065 0 0 0-.022.004l-.127.094c-.055.04-.092-.01-.047-.061.02-.022.042-.044.064-.064.064-.06.042-.071-.035-.03a.066.066 0 0 0-.017.013l-.038.039a.019.019 0 0 1-.013.005.019.019 0 0 1-.013-.032l.073-.073c.056-.056.085-.136.146-.186a8.988 8.988 0 0 1 .654-.51c.046-.044.094-.087.179-.093.008 0 .011.009.006.014-.007.007 0 .016.008.01.073-.052.123-.121.203-.13.01 0 .019-.003.027-.008a3.41 3.41 0 0 0 .084-.058c.059-.042.102-.112.166-.144a.361.361 0 0 0 .095-.055c.019-.022-.013-.05-.042-.05 0 0-.038-.026-.025-.045.213-.33.663-.61.883-.726.017-.009.037-.012.037.008 0 .006-.003.028-.008.033-.155.157-.31.364-.466.519-.02.02-.078.09-.094.114l-.045.068a.018.018 0 0 0 .016.028c.01 0 .018.009.015.018-.004.016-.014.025-.023.035-.024.024.001.047.026.025.027-.024.053-.056.08-.07.013-.007.025.004.025.019 0 .014.012.026.026.026h.005a.032.032 0 0 0 .03-.02.39.39 0 0 1 .125-.17c.02-.017-.001-.073-.028-.073l.147-.147c.007-.007.02-.011.01-.011-.021 0-.05-.017-.04-.035a.769.769 0 0 1 .247-.226c.003-.002.007-.002.004-.002-.017 0-.031-.021-.018-.034l.255-.256c.01-.01.027-.021.027-.007 0 .008.006.034.015.034h.022c.01 0 .02-.004.026-.011.041-.041.07-.063.397-.309.044-.032.085-.068.126-.104l.085-.074c-.426.295-.533.368-.582.386-.013.005-.02-.011-.013-.023a.421.421 0 0 0 .01-.016.005.005 0 0 0-.004-.007c-.006 0-.007-.007-.002-.009l.022-.007.006-.005.002.002c.06-.019.122-.034.144-.09.012-.03.023-.06.048-.078.172-.128.456-.335.826-.56.012-.007-.005-.033-.018-.04-.01-.005.003-.011.012-.02l.035-.035.053-.053a.887.887 0 0 1 .11-.092c.005-.004.002-.013-.005-.013h-.052c-.053 0-.053.053-.106.053-.046 0-.084.067-.122.094a.06.06 0 0 1-.013.007c-.014.005-.03.007-.043.014-.09.049-.143.097-.238.146a.029.029 0 0 0-.008.005l-.03.03c-.008.008-.016.02-.026.02-.01 0-.034-.012-.027-.02l.033-.033a.933.933 0 0 1-.052.049c-.008.007-.02.012-.03.017-.015.007-.024.02-.038.027l-.002.002c-.022.01-.045.02-.062.036l-.019.019a3.222 3.222 0 0 1-.35.245l-.02.021c-.002.002-.005.004-.005.002s-.002-.007-.004-.006l-.011.007a.01.01 0 0 1-.006.002h-.01a.05.05 0 0 0-.036.014l-.038.038-.016.017a.216.216 0 0 0-.046.034l.001.002c.001 0 .002.002 0 .002l-.003.001c-.001 0-.002 0-.001-.002l-.001-.001h-.018a.008.008 0 0 1-.006-.014c.038-.04.043-.044.09-.091l.053-.053-.052.053-.036.035c-.01.011-.027.016-.04.022a.043.043 0 0 0-.007.003c-.024.016-.046.045-.075.045-.043 0-.051.035-.081.048-.013.005-.025-.007-.025-.02v-.003c0-.013-.007-.017.002-.027l.086-.085.07-.07.033-.033a.069.069 0 0 1 .048-.02.07.07 0 0 0 .043-.015c.062-.048.253-.196.297-.196h.106c.008 0 .01.01.004.015a.587.587 0 0 0-.11.09c.028-.027.07-.057.118-.092a.068.068 0 0 1 .04-.013h.033a.053.053 0 0 0 .034-.014c.03-.026.07-.053.11-.08.004-.003.002-.011-.004-.011a.006.006 0 0 1-.005-.011l.034-.034a.035.035 0 0 1 .019-.01.056.056 0 0 0 .027-.013c.02-.018.025-.048.044-.067l.023-.023.053-.053.015-.015a.214.214 0 0 1 .09-.037h.015a.09.09 0 0 0 .064-.027c.017-.017.013-.026-.011-.026h-.014s-.001 0 0 0l.087-.044a.082.082 0 0 1 .036-.009.08.08 0 0 0 .057-.023l.012-.012c.01-.011.026-.016.04-.023a.048.048 0 0 0 .018-.012c.014-.016.028-.035.049-.035.01 0 .019-.004.026-.01.04-.035.081-.044.122-.073a.101.101 0 0 1 .059-.022.078.078 0 0 0 .036-.009c.094-.05.146-.096.246-.096h.158c.022 0 .045-.01.063-.021a.188.188 0 0 1 .095-.032c.052 0 .052-.053.105-.053h.042a.027.027 0 0 0 .018-.007l.024-.025c.008-.007.003-.02-.008-.019a.074.074 0 0 0-.021.006c-.004.002-.005 0-.003-.003a.01.01 0 0 0 0-.004h.106c.02-.062.033-.1.04-.126a.04.04 0 0 1 .025-.026c.031-.01.062-.02.098-.036.012-.006.008-.023-.005-.023h-.068a.015.015 0 0 1-.011-.026l.026-.026a.055.055 0 0 1-.008.029l.008.023.029-.029a.081.081 0 0 1 .057-.023.084.084 0 0 0 .036-.009c.053-.025.212-.097.299-.097.036 0 .047 0 .067-.016a.145.145 0 0 1 .09-.036h.053c.037 0 .053-.022.074-.037l-.002.002c-.019.013-.013.038.007.028.021-.01.045-.046.069-.046h.01c.035 0 .07.01.1.027 1.029.588 1.09.631 3.284 2.443.044.037.071.014.033-.03-.025-.03-.003-.065.036-.053.042.012.093.027.145.032a.133.133 0 0 1 .062.02c.186.125.295.198.366.248.037.025.001.071-.042.061-.034-.008-.047.03-.02.053.357.318.795.432 1.141.778a.42.42 0 0 1 .041.048c.072.092-.02.204-.131.167l-.069-.023a.08.08 0 0 0-.104.075c0 .03.017.056.042.072.06.037.119.086.179.128.023.016.015.086-.01.098-.021.009-.031.04-.017.057l.387.458c.091.108.256.142.378.214.066.039.159.1.297.192.039.026.085.04.126.02.056-.028.116-.009.159.037.221.233.703.774 1.028 1.14.127.144.043.282-.117.178l-.249-.165a.063.063 0 0 0-.098.052c0 .025.015.047.037.058.448.223.661.777 1.172.982a.854.854 0 0 1 .102.018c.414.17.613.658.634.714a.022.022 0 0 1 .002.011c0 .023-.022.04-.044.032l-.095-.031a.11.11 0 0 1-.034-.02l-.047-.036c-.308-.233-.72.16-.397.37.171.11.376.18.622.252a.403.403 0 0 1 .284.258l.056.19a.146.146 0 0 1-.036.144.15.15 0 0 0-.045.108c.002.094.013.135.082.345.011.033.011.064-.02.077-.026.01-.079.026-.098.007l-.011-.011a.066.066 0 0 0-.014-.01c-.336-.194-.628-.475-.958-.681a.057.057 0 0 0-.087.049l.001.008c.028.2.041.385.047.511.005.104-.068.207-.146.274-.079.068-.1.177-.024.248.105.097.264.108.408.145.116.03.147.176.082.276-.035.055-.054.106-.03.167a.78.78 0 0 0 .083.152c.031.044.084.067.132.091a.35.35 0 0 0 .035.017c.027.01.055-.003.079-.02a.019.019 0 0 1 .005-.002c.047-.032.111-.063.163-.038.035.017.071.039.086.075.053.132.077.28.128.42.037.1.162.107.236.028.042-.045.122-.067.173-.032.137.093.252.225.363.343.046.05.112.07.174.04.037-.016.076-.006.112.012.04.02.078.04.112.06.068.041.115.107.155.176.467.802 1.294 1.404 1.588 2.293.021.064-.024.154-.088.175-.021.007-.042-.002-.059-.015-.166-.131-.301-.293-.46-.431-.051-.045-.122-.037-.154.023-.021.04-.07.055-.115.044-.956-.24-1.197-1.333-2.045-1.685-.045-.02-.088.01-.104.056-.013.038-.019.09.011.115.232.188.566.231.793.423.185.156.116.437-.102.541a.553.553 0 0 0-.327.607c.064.367.21.627.667.48.061-.019.154.019.174.08.006.02-.003.04-.017.056-.248.29-.286.338-.261.47.01.05.048.081.089.11.05.033.125.043.168 0 1.085-1.047 1.626-.796 1.864-.501.15.184.125.432.052.658l-.297.925ZM92.997 52.624v.007c.002-.002.002-.011.001-.009v.002Zm2.521-3.677c.004-.003.005-.002.004.002l-.002.005-.057.038.055-.045Z" fill="#2665D6"></path><circle cx="86.563" cy="96.343" r="8.117" fill="#D717E7" stroke="#F8F8F8" stroke-width="2.395"></circle><path d="M190.848 61.725h1.269v-7.832l4.899 7.832h1.844V52.6h-1.281v7.75l-4.899-7.75h-1.832v9.126Zm12.817.18c1.557 0 2.85-1.03 3.054-2.335h-1.246c-.215.73-.946 1.221-1.808 1.221-1.234 0-2.024-.79-2.12-2.072h5.246v-.227c0-2.383-1.545-3.51-3.234-3.51-1.94 0-3.197 1.51-3.197 3.462 0 2.096 1.317 3.461 3.305 3.461Zm-2.048-4.204c.24-.97.958-1.617 1.94-1.617 1.03 0 1.761.635 1.916 1.617h-3.856Zm7.896 4.024h1.7l1.485-5.437 1.486 5.437h1.688l1.976-6.563h-1.221l-1.605 5.57-1.509-5.57h-1.629l-1.521 5.557-1.653-5.557h-1.209l2.012 6.563Zm16.362 0h1.27v-3.377l3.569-5.749h-1.485l-2.719 4.54-2.707-4.54h-1.485l3.557 5.749v3.377Zm7.427.18c2.048 0 3.378-1.545 3.378-3.461 0-2-1.39-3.461-3.378-3.461-2.048 0-3.377 1.545-3.377 3.449 0 2 1.389 3.473 3.377 3.473Zm-2.203-3.473c0-1.318.874-2.348 2.203-2.348 1.318 0 2.216 1.03 2.216 2.36 0 1.341-.874 2.347-2.216 2.347-1.329 0-2.203-1.006-2.203-2.36Zm7.083 3.293h1.222v-3.173c0-1.474.623-2.42 1.797-2.42.371 0 .706.12.862.264v-1.234c-.24-.12-.467-.18-.874-.18-.743 0-1.414.432-1.785 1.102v-.922h-1.222v6.563Zm5.047 0h1.221V60.05l1.402-1.425 2.155 3.101h1.414l-2.779-3.904 2.635-2.659h-1.593l-3.234 3.306v-5.869h-1.221v9.126Zm6.958 1.689h.874l.719-3.222h-1.593v3.222Zm11.33-1.509c2.407 0 3.856-1.461 3.856-3.928v-5.378h-1.269v5.378c0 1.712-.959 2.694-2.587 2.694-1.629 0-2.587-.982-2.587-2.694v-5.378h-1.27v5.378c0 2.467 1.437 3.928 3.857 3.928Zm9.517 0c2.203 0 3.58-.958 3.58-2.503 0-1.341-.838-2.144-2.383-2.551l-1.653-.431c-1.233-.336-1.808-.767-1.808-1.413 0-.875.826-1.342 1.976-1.342 1.21 0 2.192.719 2.3 1.677h1.413c-.108-1.545-1.677-2.922-3.581-2.922-2.072 0-3.461 1.042-3.461 2.61 0 1.318.778 2.084 2.611 2.492l1.568.347c1.39.311 1.749.814 1.749 1.45 0 .873-.85 1.412-2.204 1.412-1.461 0-2.443-.766-2.527-1.988h-1.461c.108 1.94 1.617 3.162 3.881 3.162Zm4.206-.18h1.377l1.018-2.575h4.408l1.018 2.575h1.365l-3.725-9.126h-1.736l-3.725 9.126Zm2.862-3.76 1.737-4.36 1.725 4.36h-3.462ZM222.266 113.5h2.906l9.549-22.324v-2.012h-16.032v2.523h13.062l-9.485 21.813Zm24.192-24.815c-5.206 0-8.495 3.226-8.495 8.431 0 5.142 3.226 8.368 8.367 8.368 3.162 0 5.973-1.725 6.995-4.216-.48 6.675-3.034 10.348-7.218 10.348-2.843 0-4.759-1.533-5.206-4.152h-2.746c.734 4.024 3.704 6.515 7.952 6.515 6.004 0 9.453-4.535 9.453-12.711 0-8.08-3.289-12.583-9.102-12.583Zm-5.844 8.431c0-3.576 2.459-6.1 5.972-6.1 3.481 0 5.908 2.523 5.908 6.1 0 3.513-2.427 6.005-5.908 6.005-3.513 0-5.972-2.492-5.972-6.005ZM218.167 150.275h3.219l4.384-10.951h-2.386l-3.593 9.355-3.607-9.355h-2.4l4.383 10.951Zm8.578 0h2.199v-7.933h-2.199v7.933Zm-.215-9.845c0 .676.56 1.193 1.322 1.193.747 0 1.322-.517 1.322-1.193 0-.675-.575-1.164-1.322-1.164-.762 0-1.322.489-1.322 1.164Zm8 10.06c2.242 0 3.837-1.351 3.909-2.975h-2.199c-.158.661-.848 1.107-1.696 1.107-1.135 0-1.825-.647-1.955-1.854h5.907v-.259c0-3.219-1.998-4.383-4.067-4.383-2.587 0-4.053 1.897-4.053 4.182 0 2.544 1.552 4.182 4.154 4.182Zm-1.854-5.116c.258-.877.876-1.437 1.753-1.437.92 0 1.566.575 1.768 1.437h-3.521Zm8.811 4.901h2.702l1.595-5.735 1.581 5.735h2.673l2.515-7.933h-2.141l-1.739 5.892-1.639-5.892h-2.5l-1.653 5.892-1.753-5.892h-2.127l2.486 7.933Zm15.061.215c2.141 0 3.535-.948 3.535-2.4 0-1.265-.862-2.026-2.457-2.385l-1.322-.317c-.848-.201-1.136-.416-1.136-.776 0-.431.475-.733 1.164-.733.848 0 1.438.489 1.409 1.078h2.156c.071-1.581-1.466-2.831-3.478-2.831-2.027 0-3.378.977-3.378 2.429 0 1.25.848 2.055 2.558 2.385l1.251.245c1.02.215 1.164.474 1.164.819 0 .46-.532.79-1.365.79-.949 0-1.596-.531-1.538-1.25h-2.199c-.172 1.71 1.351 2.946 3.636 2.946Z" fill="#D2E823"></path></svg>